<svg xmlns="http://www.w3.org/2000/svg" xmlns:xlink="http://www.w3.org/1999/xlink" width="1080" zoomAndPan="magnify" viewBox="0 0 810 809.999993" height="1080" preserveAspectRatio="xMidYMid meet" version="1.0"><defs><g/><clipPath id="81dfa22d18"><path d="M 589.078125 495.199219 L 630.207031 495.199219 L 630.207031 536.328125 L 589.078125 536.328125 Z M 589.078125 495.199219 " clip-rule="nonzero"/></clipPath><clipPath id="8df1dc6580"><path d="M 609.640625 495.199219 C 598.285156 495.199219 589.078125 504.40625 589.078125 515.761719 C 589.078125 527.121094 598.285156 536.328125 609.640625 536.328125 C 621 536.328125 630.207031 527.121094 630.207031 515.761719 C 630.207031 504.40625 621 495.199219 609.640625 495.199219 Z M 609.640625 495.199219 " clip-rule="nonzero"/></clipPath><clipPath id="b209fec2d9"><path d="M 294.683594 387.433594 L 321.484375 387.433594 L 321.484375 414.234375 L 294.683594 414.234375 Z M 294.683594 387.433594 " clip-rule="nonzero"/></clipPath><clipPath id="cf84661393"><path d="M 308.082031 387.433594 C 300.683594 387.433594 294.683594 393.429688 294.683594 400.832031 C 294.683594 408.234375 300.683594 414.234375 308.082031 414.234375 C 315.484375 414.234375 321.484375 408.234375 321.484375 400.832031 C 321.484375 393.429688 315.484375 387.433594 308.082031 387.433594 Z M 308.082031 387.433594 " clip-rule="nonzero"/></clipPath></defs><rect x="-81" width="972" fill="#ffffff" y="-80.999999" height="971.999992" fill-opacity="1"/><rect x="-81" width="972" fill="#ffffff" y="-80.999999" height="971.999992" fill-opacity="1"/><g fill="#000000" fill-opacity="1"><g transform="translate(121.329513, 621.066733)"><g><path d="M 29.625 -0.40625 L 29.96875 -0.40625 L 29.96875 0 L 20.65625 0 L 20.65625 -0.40625 L 21.03125 -0.40625 C 21.601562 -0.40625 22.035156 -0.59375 22.328125 -0.96875 C 22.617188 -1.34375 22.765625 -1.695312 22.765625 -2.03125 C 22.765625 -2.363281 22.707031 -2.691406 22.59375 -3.015625 L 19.953125 -10.046875 L 8.78125 -10.046875 L 6 -2.984375 C 5.894531 -2.648438 5.84375 -2.320312 5.84375 -2 C 5.84375 -1.6875 5.984375 -1.34375 6.265625 -0.96875 C 6.554688 -0.59375 6.992188 -0.40625 7.578125 -0.40625 L 7.953125 -0.40625 L 7.953125 0 L -0.359375 0 L -0.359375 -0.40625 L 0 -0.40625 C 0.695312 -0.40625 1.375 -0.625 2.03125 -1.0625 C 2.695312 -1.507812 3.234375 -2.160156 3.640625 -3.015625 L 13 -25.28125 C 14.019531 -27.507812 14.53125 -28.929688 14.53125 -29.546875 L 14.90625 -29.546875 L 25.984375 -3.015625 C 26.367188 -2.160156 26.890625 -1.507812 27.546875 -1.0625 C 28.210938 -0.625 28.90625 -0.40625 29.625 -0.40625 Z M 9.28125 -11.296875 L 19.453125 -11.296875 L 14.484375 -24.578125 Z M 9.28125 -11.296875 "/></g></g></g><g fill="#000000" fill-opacity="1"><g transform="translate(150.782941, 621.066733)"><g><path d="M 17.34375 0.578125 C 12.925781 0.546875 9.34375 -0.84375 6.59375 -3.59375 C 3.851562 -6.351562 2.484375 -9.976562 2.484375 -14.46875 C 2.484375 -18.96875 3.851562 -22.601562 6.59375 -25.375 C 9.34375 -28.15625 12.925781 -29.546875 17.34375 -29.546875 C 21.144531 -29.546875 24.492188 -28.609375 27.390625 -26.734375 L 28.21875 -20.890625 L 27.84375 -20.890625 C 27.238281 -23.265625 26.019531 -25.09375 24.1875 -26.375 C 22.351562 -27.65625 20.070312 -28.296875 17.34375 -28.296875 C 13.832031 -28.296875 10.992188 -27.023438 8.828125 -24.484375 C 6.660156 -21.953125 5.578125 -18.617188 5.578125 -14.484375 C 5.578125 -10.347656 6.660156 -7.015625 8.828125 -4.484375 C 10.992188 -1.960938 13.832031 -0.6875 17.34375 -0.65625 C 19.132812 -0.65625 20.832031 -0.972656 22.4375 -1.609375 C 24.050781 -2.242188 25.46875 -3.128906 26.6875 -4.265625 L 26.6875 -11.578125 C 26.6875 -12.191406 26.5 -12.65625 26.125 -12.96875 C 25.75 -13.289062 25.234375 -13.453125 24.578125 -13.453125 L 23.921875 -13.453125 L 23.921875 -13.859375 L 32.03125 -13.859375 L 32.03125 -13.453125 L 31.40625 -13.453125 C 30.71875 -13.453125 30.191406 -13.289062 29.828125 -12.96875 C 29.472656 -12.65625 29.304688 -12.191406 29.328125 -11.578125 L 29.328125 -4.765625 C 28.617188 -3.816406 27.765625 -2.96875 26.765625 -2.21875 C 25.773438 -1.476562 24.445312 -0.828125 22.78125 -0.265625 C 21.113281 0.296875 19.300781 0.578125 17.34375 0.578125 Z M 17.34375 0.578125 "/></g></g></g><g fill="#000000" fill-opacity="1"><g transform="translate(183.793949, 621.066733)"><g><path d="M 41.09375 -28.546875 L 40.765625 -28.546875 C 39.742188 -28.546875 38.847656 -28.175781 38.078125 -27.4375 C 37.628906 -27.050781 37.3125 -26.566406 37.125 -25.984375 L 30.25 -4.09375 C 29.695312 -2.351562 29.394531 -0.820312 29.34375 0.5 L 28.96875 0.5 L 20.53125 -23.171875 L 14.234375 -4.09375 C 13.710938 -2.382812 13.425781 -0.851562 13.375 0.5 L 13 0.5 L 3.609375 -26.03125 C 3.273438 -26.851562 2.765625 -27.476562 2.078125 -27.90625 C 1.390625 -28.332031 0.6875 -28.546875 -0.03125 -28.546875 L -0.359375 -28.546875 L -0.359375 -28.96875 L 8.8125 -28.96875 L 8.8125 -28.546875 L 8.453125 -28.546875 C 7.867188 -28.546875 7.429688 -28.359375 7.140625 -27.984375 C 6.847656 -27.617188 6.703125 -27.269531 6.703125 -26.9375 C 6.703125 -26.601562 6.742188 -26.300781 6.828125 -26.03125 L 13.125 -5.875 L 20.8125 -29.625 L 21.1875 -29.578125 L 29.34375 -6.703125 L 34.890625 -26.0625 C 34.972656 -26.363281 35.015625 -26.671875 35.015625 -26.984375 C 35.015625 -27.304688 34.875 -27.644531 34.59375 -28 C 34.320312 -28.363281 33.894531 -28.546875 33.3125 -28.546875 L 32.9375 -28.546875 L 32.9375 -28.96875 L 41.09375 -28.96875 Z M 41.09375 -28.546875 "/></g></g></g><g fill="#000000" fill-opacity="1"><g transform="translate(224.416513, 621.066733)"><g><path d="M 29.625 -0.40625 L 29.96875 -0.40625 L 29.96875 0 L 20.65625 0 L 20.65625 -0.40625 L 21.03125 -0.40625 C 21.601562 -0.40625 22.035156 -0.59375 22.328125 -0.96875 C 22.617188 -1.34375 22.765625 -1.695312 22.765625 -2.03125 C 22.765625 -2.363281 22.707031 -2.691406 22.59375 -3.015625 L 19.953125 -10.046875 L 8.78125 -10.046875 L 6 -2.984375 C 5.894531 -2.648438 5.84375 -2.320312 5.84375 -2 C 5.84375 -1.6875 5.984375 -1.34375 6.265625 -0.96875 C 6.554688 -0.59375 6.992188 -0.40625 7.578125 -0.40625 L 7.953125 -0.40625 L 7.953125 0 L -0.359375 0 L -0.359375 -0.40625 L 0 -0.40625 C 0.695312 -0.40625 1.375 -0.625 2.03125 -1.0625 C 2.695312 -1.507812 3.234375 -2.160156 3.640625 -3.015625 L 13 -25.28125 C 14.019531 -27.507812 14.53125 -28.929688 14.53125 -29.546875 L 14.90625 -29.546875 L 25.984375 -3.015625 C 26.367188 -2.160156 26.890625 -1.507812 27.546875 -1.0625 C 28.210938 -0.625 28.90625 -0.40625 29.625 -0.40625 Z M 9.28125 -11.296875 L 19.453125 -11.296875 L 14.484375 -24.578125 Z M 9.28125 -11.296875 "/></g></g></g><g fill="#000000" fill-opacity="1"><g transform="translate(253.869942, 621.066733)"><g><path d="M 27.84375 -28.546875 L 27.265625 -28.546875 C 26.441406 -28.546875 25.664062 -28.316406 24.9375 -27.859375 C 24.207031 -27.410156 23.59375 -26.84375 23.09375 -26.15625 L 14.9375 -12.90625 L 14.9375 -3.015625 C 14.9375 -2.296875 15.191406 -1.679688 15.703125 -1.171875 C 16.210938 -0.660156 16.84375 -0.40625 17.59375 -0.40625 L 18.09375 -0.40625 L 18.09375 0 L 9.0625 0 L 9.0625 -0.40625 L 9.609375 -0.40625 C 10.328125 -0.40625 10.941406 -0.65625 11.453125 -1.15625 C 11.960938 -1.65625 12.226562 -2.265625 12.25 -2.984375 L 12.25 -12.953125 L 4.34375 -26.15625 C 3.9375 -26.8125 3.351562 -27.375 2.59375 -27.84375 C 1.832031 -28.3125 1.039062 -28.546875 0.21875 -28.546875 L -0.359375 -28.546875 L -0.359375 -28.96875 L 9.8125 -28.96875 L 9.8125 -28.546875 L 9.28125 -28.546875 C 8.664062 -28.546875 8.191406 -28.269531 7.859375 -27.71875 C 7.703125 -27.414062 7.625 -27.117188 7.625 -26.828125 C 7.625 -26.535156 7.691406 -26.253906 7.828125 -25.984375 L 14.03125 -14.40625 L 20.65625 -26.03125 C 20.789062 -26.300781 20.859375 -26.570312 20.859375 -26.84375 C 20.859375 -27.125 20.757812 -27.414062 20.5625 -27.71875 C 20.238281 -28.269531 19.769531 -28.546875 19.15625 -28.546875 L 18.671875 -28.546875 L 18.671875 -28.96875 L 27.84375 -28.96875 Z M 27.84375 -28.546875 "/></g></g></g><g fill="#000000" fill-opacity="1"><g transform="translate(281.213641, 621.066733)"><g/></g></g><g fill="#000000" fill-opacity="1"><g transform="translate(291.555437, 621.066733)"><g><path d="M 3.015625 -0.40625 C 3.734375 -0.40625 4.347656 -0.660156 4.859375 -1.171875 C 5.367188 -1.679688 5.640625 -2.296875 5.671875 -3.015625 L 5.671875 -25.984375 C 5.640625 -26.703125 5.367188 -27.304688 4.859375 -27.796875 C 4.347656 -28.296875 3.734375 -28.546875 3.015625 -28.546875 L 2.484375 -28.546875 L 2.484375 -28.96875 L 11.546875 -28.96875 L 11.546875 -28.546875 L 11 -28.546875 C 10.289062 -28.546875 9.679688 -28.296875 9.171875 -27.796875 C 8.660156 -27.304688 8.390625 -26.703125 8.359375 -25.984375 L 8.359375 -3.015625 C 8.359375 -2.296875 8.617188 -1.679688 9.140625 -1.171875 C 9.671875 -0.660156 10.289062 -0.40625 11 -0.40625 L 11.546875 -0.40625 L 11.546875 0 L 2.484375 0 L 2.484375 -0.40625 Z M 3.015625 -0.40625 "/></g></g></g><g fill="#000000" fill-opacity="1"><g transform="translate(305.537542, 621.066733)"><g><path d="M 30.078125 -24.40625 C 29.472656 -24.40625 28.945312 -24.207031 28.5 -23.8125 C 28.0625 -23.414062 27.828125 -22.925781 27.796875 -22.34375 L 27.796875 -4.71875 C 27.796875 -3.113281 27.894531 -1.597656 28.09375 -0.171875 L 28.171875 0.578125 L 27.796875 0.578125 L 6.28125 -19.8125 L 6.28125 -2.5625 C 6.28125 -1.957031 6.5 -1.445312 6.9375 -1.03125 C 7.382812 -0.613281 7.925781 -0.40625 8.5625 -0.40625 L 9.265625 -0.40625 L 9.265625 0 L 1.453125 0 L 1.453125 -0.40625 L 2.15625 -0.40625 C 2.789062 -0.40625 3.328125 -0.613281 3.765625 -1.03125 C 4.203125 -1.445312 4.421875 -1.957031 4.421875 -2.5625 L 4.421875 -20.28125 C 4.421875 -21.957031 4.328125 -23.457031 4.140625 -24.78125 L 4.0625 -25.453125 L 4.515625 -25.40625 L 25.984375 -5.171875 L 25.984375 -22.34375 C 25.929688 -22.925781 25.679688 -23.414062 25.234375 -23.8125 C 24.796875 -24.207031 24.273438 -24.40625 23.671875 -24.40625 L 22.96875 -24.40625 L 22.96875 -24.828125 L 30.78125 -24.828125 L 30.78125 -24.40625 Z M 30.078125 -24.40625 "/></g></g></g><g fill="#000000" fill-opacity="1"><g transform="translate(337.762569, 621.066733)"><g><path d="M 27.6875 -24.40625 L 27.359375 -24.40625 C 26.742188 -24.40625 26.144531 -24.207031 25.5625 -23.8125 C 24.988281 -23.414062 24.492188 -22.816406 24.078125 -22.015625 C 18.066406 -9.097656 14.9375 -2.335938 14.6875 -1.734375 C 14.21875 -0.578125 13.972656 0.191406 13.953125 0.578125 L 13.578125 0.578125 L 3.359375 -21.96875 C 2.554688 -23.59375 1.492188 -24.40625 0.171875 -24.40625 L -0.15625 -24.40625 L -0.15625 -24.828125 L 8.328125 -24.828125 L 8.328125 -24.40625 L 7.984375 -24.40625 C 7.460938 -24.40625 7.070312 -24.21875 6.8125 -23.84375 C 6.550781 -23.476562 6.421875 -23.144531 6.421875 -22.84375 C 6.421875 -22.539062 6.460938 -22.222656 6.546875 -21.890625 L 13.953125 -3.84375 L 21.5625 -21.796875 C 21.695312 -22.160156 21.765625 -22.5 21.765625 -22.8125 C 21.765625 -23.132812 21.625 -23.476562 21.34375 -23.84375 C 21.070312 -24.21875 20.660156 -24.40625 20.109375 -24.40625 L 19.828125 -24.40625 L 19.828125 -24.828125 L 27.6875 -24.828125 Z M 27.6875 -24.40625 "/></g></g></g><g fill="#000000" fill-opacity="1"><g transform="translate(365.188997, 621.066733)"><g><path d="M 2.859375 -0.40625 C 3.515625 -0.40625 4.070312 -0.617188 4.53125 -1.046875 C 4.988281 -1.484375 5.226562 -2.003906 5.25 -2.609375 L 5.25 -22.265625 C 5.25 -22.867188 5.015625 -23.375 4.546875 -23.78125 C 4.078125 -24.195312 3.515625 -24.40625 2.859375 -24.40625 L 2.28125 -24.40625 L 2.28125 -24.828125 L 14.359375 -24.828125 C 15.484375 -24.828125 16.472656 -24.910156 17.328125 -25.078125 C 18.191406 -25.242188 18.742188 -25.378906 18.984375 -25.484375 L 18.984375 -20.765625 L 18.53125 -20.8125 L 18.53125 -21.4375 C 18.53125 -22.007812 18.335938 -22.503906 17.953125 -22.921875 C 17.566406 -23.335938 17.070312 -23.546875 16.46875 -23.546875 L 7.859375 -23.546875 L 7.859375 -13.03125 L 14.9375 -13.03125 C 15.488281 -13.03125 15.90625 -13.195312 16.1875 -13.53125 C 16.476562 -13.863281 16.625 -14.273438 16.625 -14.765625 L 16.625 -15.3125 L 17.09375 -15.3125 L 17.09375 -9.515625 L 16.625 -9.515625 L 16.625 -10.046875 C 16.625 -10.828125 16.335938 -11.351562 15.765625 -11.625 C 15.546875 -11.707031 15.3125 -11.765625 15.0625 -11.796875 L 7.859375 -11.796875 L 7.859375 -1.28125 L 14.359375 -1.28125 C 15.628906 -1.28125 16.695312 -1.5 17.5625 -1.9375 C 18.425781 -2.382812 19.085938 -2.910156 19.546875 -3.515625 C 20.003906 -4.117188 20.46875 -4.921875 20.9375 -5.921875 L 21.34375 -5.921875 L 19.078125 0 L 2.28125 0 L 2.28125 -0.40625 Z M 2.859375 -0.40625 "/></g></g></g><g fill="#000000" fill-opacity="1"><g transform="translate(387.775467, 621.066733)"><g><path d="M 2.40625 -1.359375 C 2.320312 -1.691406 2.28125 -2.367188 2.28125 -3.390625 C 2.28125 -4.410156 2.457031 -5.445312 2.8125 -6.5 L 3.3125 -6.5 C 3.28125 -6.25 3.265625 -6 3.265625 -5.75 C 3.265625 -4.257812 3.753906 -3.035156 4.734375 -2.078125 C 5.710938 -1.128906 7.070312 -0.65625 8.8125 -0.65625 C 10.632812 -0.65625 12.054688 -1.078125 13.078125 -1.921875 C 14.097656 -2.765625 14.609375 -3.851562 14.609375 -5.1875 C 14.609375 -6.53125 14.109375 -7.640625 13.109375 -8.515625 L 4.84375 -14.890625 C 3.519531 -16.023438 2.859375 -17.546875 2.859375 -19.453125 C 2.859375 -20.523438 3.15625 -21.515625 3.75 -22.421875 C 4.34375 -23.335938 5.164062 -24.0625 6.21875 -24.59375 C 7.28125 -25.132812 8.53125 -25.40625 9.96875 -25.40625 C 11.40625 -25.40625 12.675781 -25.28125 13.78125 -25.03125 L 15.140625 -25.03125 L 15.21875 -20.515625 L 14.765625 -20.515625 C 14.765625 -21.679688 14.363281 -22.578125 13.5625 -23.203125 C 12.769531 -23.835938 11.628906 -24.15625 10.140625 -24.15625 C 8.648438 -24.15625 7.421875 -23.773438 6.453125 -23.015625 C 5.484375 -22.265625 5 -21.285156 5 -20.078125 C 5 -18.878906 5.539062 -17.84375 6.625 -16.96875 L 14.984375 -10.515625 C 16.242188 -9.460938 16.875 -8 16.875 -6.125 C 16.875 -4.25 16.164062 -2.660156 14.75 -1.359375 C 13.332031 -0.0664062 11.601562 0.578125 9.5625 0.578125 C 8.207031 0.578125 6.851562 0.410156 5.5 0.078125 C 4.144531 -0.242188 3.113281 -0.722656 2.40625 -1.359375 Z M 2.40625 -1.359375 "/></g></g></g><g fill="#000000" fill-opacity="1"><g transform="translate(406.8871, 621.066733)"><g><path d="M 13.328125 -23.625 L 13.328125 -2.609375 C 13.347656 -1.753906 13.757812 -1.117188 14.5625 -0.703125 C 14.925781 -0.503906 15.328125 -0.40625 15.765625 -0.40625 L 16.21875 -0.40625 L 16.21875 0 L 7.703125 0 L 7.703125 -0.40625 L 8.1875 -0.40625 C 8.851562 -0.40625 9.421875 -0.625 9.890625 -1.0625 C 10.359375 -1.507812 10.609375 -2.035156 10.640625 -2.640625 L 10.640625 -23.625 L 3.140625 -23.625 C 2.503906 -23.625 2 -23.414062 1.625 -23 C 1.257812 -22.59375 1.078125 -22.097656 1.078125 -21.515625 L 1.078125 -20.859375 L 0.625 -20.859375 L 0.625 -25.53125 C 1.175781 -25.3125 1.953125 -25.144531 2.953125 -25.03125 C 3.960938 -24.914062 4.71875 -24.859375 5.21875 -24.859375 L 18.703125 -24.859375 C 20.691406 -24.859375 22.234375 -25.082031 23.328125 -25.53125 L 23.328125 -20.859375 L 22.875 -20.859375 L 22.875 -21.515625 C 22.875 -22.097656 22.679688 -22.59375 22.296875 -23 C 21.910156 -23.414062 21.414062 -23.625 20.8125 -23.625 Z M 13.328125 -23.625 "/></g></g></g><g fill="#000000" fill-opacity="1"><g transform="translate(430.797331, 621.066733)"><g><path d="M 35.421875 -0.40625 L 36.03125 -0.40625 L 36.03125 0 L 27.4375 0 L 27.4375 -0.375 L 28.046875 -0.375 C 28.460938 -0.375 28.828125 -0.53125 29.140625 -0.84375 C 29.460938 -1.164062 29.597656 -1.546875 29.546875 -1.984375 L 27.390625 -19.03125 L 19.578125 -3.640625 C 18.796875 -1.953125 18.3125 -0.546875 18.125 0.578125 L 17.703125 0.578125 L 7.734375 -18.65625 L 5.875 -1.984375 C 5.820312 -1.566406 5.953125 -1.191406 6.265625 -0.859375 C 6.585938 -0.535156 6.96875 -0.375 7.40625 -0.375 L 7.984375 -0.375 L 7.984375 0 L 0.328125 0 L 0.328125 -0.40625 L 0.953125 -0.40625 C 1.941406 -0.40625 2.710938 -0.765625 3.265625 -1.484375 C 3.546875 -1.847656 3.710938 -2.273438 3.765625 -2.765625 L 7 -25.40625 L 7.40625 -25.40625 L 18.328125 -4.390625 L 28.875 -25.40625 L 29.25 -25.40625 L 32.609375 -2.6875 C 32.710938 -2 33.023438 -1.445312 33.546875 -1.03125 C 34.078125 -0.613281 34.703125 -0.40625 35.421875 -0.40625 Z M 35.421875 -0.40625 "/></g></g></g><g fill="#000000" fill-opacity="1"><g transform="translate(467.117718, 621.066733)"><g><path d="M 2.859375 -0.40625 C 3.515625 -0.40625 4.070312 -0.617188 4.53125 -1.046875 C 4.988281 -1.484375 5.226562 -2.003906 5.25 -2.609375 L 5.25 -22.265625 C 5.25 -22.867188 5.015625 -23.375 4.546875 -23.78125 C 4.078125 -24.195312 3.515625 -24.40625 2.859375 -24.40625 L 2.28125 -24.40625 L 2.28125 -24.828125 L 14.359375 -24.828125 C 15.484375 -24.828125 16.472656 -24.910156 17.328125 -25.078125 C 18.191406 -25.242188 18.742188 -25.378906 18.984375 -25.484375 L 18.984375 -20.765625 L 18.53125 -20.8125 L 18.53125 -21.4375 C 18.53125 -22.007812 18.335938 -22.503906 17.953125 -22.921875 C 17.566406 -23.335938 17.070312 -23.546875 16.46875 -23.546875 L 7.859375 -23.546875 L 7.859375 -13.03125 L 14.9375 -13.03125 C 15.488281 -13.03125 15.90625 -13.195312 16.1875 -13.53125 C 16.476562 -13.863281 16.625 -14.273438 16.625 -14.765625 L 16.625 -15.3125 L 17.09375 -15.3125 L 17.09375 -9.515625 L 16.625 -9.515625 L 16.625 -10.046875 C 16.625 -10.828125 16.335938 -11.351562 15.765625 -11.625 C 15.546875 -11.707031 15.3125 -11.765625 15.0625 -11.796875 L 7.859375 -11.796875 L 7.859375 -1.28125 L 14.359375 -1.28125 C 15.628906 -1.28125 16.695312 -1.5 17.5625 -1.9375 C 18.425781 -2.382812 19.085938 -2.910156 19.546875 -3.515625 C 20.003906 -4.117188 20.46875 -4.921875 20.9375 -5.921875 L 21.34375 -5.921875 L 19.078125 0 L 2.28125 0 L 2.28125 -0.40625 Z M 2.859375 -0.40625 "/></g></g></g><g fill="#000000" fill-opacity="1"><g transform="translate(489.704188, 621.066733)"><g><path d="M 30.078125 -24.40625 C 29.472656 -24.40625 28.945312 -24.207031 28.5 -23.8125 C 28.0625 -23.414062 27.828125 -22.925781 27.796875 -22.34375 L 27.796875 -4.71875 C 27.796875 -3.113281 27.894531 -1.597656 28.09375 -0.171875 L 28.171875 0.578125 L 27.796875 0.578125 L 6.28125 -19.8125 L 6.28125 -2.5625 C 6.28125 -1.957031 6.5 -1.445312 6.9375 -1.03125 C 7.382812 -0.613281 7.925781 -0.40625 8.5625 -0.40625 L 9.265625 -0.40625 L 9.265625 0 L 1.453125 0 L 1.453125 -0.40625 L 2.15625 -0.40625 C 2.789062 -0.40625 3.328125 -0.613281 3.765625 -1.03125 C 4.203125 -1.445312 4.421875 -1.957031 4.421875 -2.5625 L 4.421875 -20.28125 C 4.421875 -21.957031 4.328125 -23.457031 4.140625 -24.78125 L 4.0625 -25.453125 L 4.515625 -25.40625 L 25.984375 -5.171875 L 25.984375 -22.34375 C 25.929688 -22.925781 25.679688 -23.414062 25.234375 -23.8125 C 24.796875 -24.207031 24.273438 -24.40625 23.671875 -24.40625 L 22.96875 -24.40625 L 22.96875 -24.828125 L 30.78125 -24.828125 L 30.78125 -24.40625 Z M 30.078125 -24.40625 "/></g></g></g><g fill="#000000" fill-opacity="1"><g transform="translate(521.929193, 621.066733)"><g><path d="M 13.328125 -23.625 L 13.328125 -2.609375 C 13.347656 -1.753906 13.757812 -1.117188 14.5625 -0.703125 C 14.925781 -0.503906 15.328125 -0.40625 15.765625 -0.40625 L 16.21875 -0.40625 L 16.21875 0 L 7.703125 0 L 7.703125 -0.40625 L 8.1875 -0.40625 C 8.851562 -0.40625 9.421875 -0.625 9.890625 -1.0625 C 10.359375 -1.507812 10.609375 -2.035156 10.640625 -2.640625 L 10.640625 -23.625 L 3.140625 -23.625 C 2.503906 -23.625 2 -23.414062 1.625 -23 C 1.257812 -22.59375 1.078125 -22.097656 1.078125 -21.515625 L 1.078125 -20.859375 L 0.625 -20.859375 L 0.625 -25.53125 C 1.175781 -25.3125 1.953125 -25.144531 2.953125 -25.03125 C 3.960938 -24.914062 4.71875 -24.859375 5.21875 -24.859375 L 18.703125 -24.859375 C 20.691406 -24.859375 22.234375 -25.082031 23.328125 -25.53125 L 23.328125 -20.859375 L 22.875 -20.859375 L 22.875 -21.515625 C 22.875 -22.097656 22.679688 -22.59375 22.296875 -23 C 21.910156 -23.414062 21.414062 -23.625 20.8125 -23.625 Z M 13.328125 -23.625 "/></g></g></g><g fill="#000000" fill-opacity="1"><g transform="translate(545.839424, 621.066733)"><g/></g></g><g fill="#000000" fill-opacity="1"><g transform="translate(556.18122, 621.066733)"><g><path d="M 3.015625 -0.40625 C 3.734375 -0.40625 4.347656 -0.660156 4.859375 -1.171875 C 5.367188 -1.679688 5.640625 -2.296875 5.671875 -3.015625 L 5.671875 -25.9375 C 5.640625 -26.65625 5.367188 -27.269531 4.859375 -27.78125 C 4.347656 -28.289062 3.734375 -28.546875 3.015625 -28.546875 L 2.484375 -28.546875 L 2.484375 -28.96875 L 11.546875 -28.96875 L 11.546875 -28.546875 L 11 -28.546875 C 10.007812 -28.546875 9.253906 -28.117188 8.734375 -27.265625 C 8.484375 -26.847656 8.359375 -26.40625 8.359375 -25.9375 L 8.359375 -1.28125 L 14.28125 -1.28125 C 16.320312 -1.28125 17.878906 -1.734375 18.953125 -2.640625 C 20.023438 -3.554688 20.921875 -4.910156 21.640625 -6.703125 L 22.046875 -6.703125 L 19.65625 0 L 2.484375 0 L 2.484375 -0.40625 Z M 3.015625 -0.40625 "/></g></g></g><g fill="#000000" fill-opacity="1"><g transform="translate(579.429571, 621.066733)"><g><path d="M 2.859375 -0.40625 C 3.597656 -0.40625 4.242188 -0.625 4.796875 -1.0625 C 5.347656 -1.507812 5.625 -2.035156 5.625 -2.640625 L 5.625 -22.171875 C 5.625 -22.785156 5.347656 -23.3125 4.796875 -23.75 C 4.242188 -24.1875 3.582031 -24.40625 2.8125 -24.40625 L 2.28125 -24.40625 L 2.28125 -24.828125 L 11.625 -24.828125 L 11.625 -24.40625 L 11.09375 -24.40625 C 10.34375 -24.40625 9.695312 -24.195312 9.15625 -23.78125 C 8.625 -23.375 8.332031 -22.867188 8.28125 -22.265625 L 8.28125 -2.609375 C 8.300781 -2.003906 8.585938 -1.484375 9.140625 -1.046875 C 9.691406 -0.617188 10.34375 -0.40625 11.09375 -0.40625 L 11.625 -0.40625 L 11.671875 0 L 2.28125 0 L 2.28125 -0.40625 Z M 2.859375 -0.40625 "/></g></g></g><g fill="#000000" fill-opacity="1"><g transform="translate(593.32897, 621.066733)"><g><path d="M 35.421875 -0.40625 L 36.03125 -0.40625 L 36.03125 0 L 27.4375 0 L 27.4375 -0.375 L 28.046875 -0.375 C 28.460938 -0.375 28.828125 -0.53125 29.140625 -0.84375 C 29.460938 -1.164062 29.597656 -1.546875 29.546875 -1.984375 L 27.390625 -19.03125 L 19.578125 -3.640625 C 18.796875 -1.953125 18.3125 -0.546875 18.125 0.578125 L 17.703125 0.578125 L 7.734375 -18.65625 L 5.875 -1.984375 C 5.820312 -1.566406 5.953125 -1.191406 6.265625 -0.859375 C 6.585938 -0.535156 6.96875 -0.375 7.40625 -0.375 L 7.984375 -0.375 L 7.984375 0 L 0.328125 0 L 0.328125 -0.40625 L 0.953125 -0.40625 C 1.941406 -0.40625 2.710938 -0.765625 3.265625 -1.484375 C 3.546875 -1.847656 3.710938 -2.273438 3.765625 -2.765625 L 7 -25.40625 L 7.40625 -25.40625 L 18.328125 -4.390625 L 28.875 -25.40625 L 29.25 -25.40625 L 32.609375 -2.6875 C 32.710938 -2 33.023438 -1.445312 33.546875 -1.03125 C 34.078125 -0.613281 34.703125 -0.40625 35.421875 -0.40625 Z M 35.421875 -0.40625 "/></g></g></g><g fill="#000000" fill-opacity="1"><g transform="translate(629.649357, 621.066733)"><g><path d="M 2.859375 -0.40625 C 3.597656 -0.40625 4.242188 -0.625 4.796875 -1.0625 C 5.347656 -1.507812 5.625 -2.035156 5.625 -2.640625 L 5.625 -22.171875 C 5.625 -22.785156 5.347656 -23.3125 4.796875 -23.75 C 4.242188 -24.1875 3.582031 -24.40625 2.8125 -24.40625 L 2.28125 -24.40625 L 2.28125 -24.828125 L 11.625 -24.828125 L 11.625 -24.40625 L 11.09375 -24.40625 C 10.34375 -24.40625 9.695312 -24.195312 9.15625 -23.78125 C 8.625 -23.375 8.332031 -22.867188 8.28125 -22.265625 L 8.28125 -2.609375 C 8.300781 -2.003906 8.585938 -1.484375 9.140625 -1.046875 C 9.691406 -0.617188 10.34375 -0.40625 11.09375 -0.40625 L 11.625 -0.40625 L 11.671875 0 L 2.28125 0 L 2.28125 -0.40625 Z M 2.859375 -0.40625 "/></g></g></g><g fill="#000000" fill-opacity="1"><g transform="translate(643.548755, 621.066733)"><g><path d="M 13.328125 -23.625 L 13.328125 -2.609375 C 13.347656 -1.753906 13.757812 -1.117188 14.5625 -0.703125 C 14.925781 -0.503906 15.328125 -0.40625 15.765625 -0.40625 L 16.21875 -0.40625 L 16.21875 0 L 7.703125 0 L 7.703125 -0.40625 L 8.1875 -0.40625 C 8.851562 -0.40625 9.421875 -0.625 9.890625 -1.0625 C 10.359375 -1.507812 10.609375 -2.035156 10.640625 -2.640625 L 10.640625 -23.625 L 3.140625 -23.625 C 2.503906 -23.625 2 -23.414062 1.625 -23 C 1.257812 -22.59375 1.078125 -22.097656 1.078125 -21.515625 L 1.078125 -20.859375 L 0.625 -20.859375 L 0.625 -25.53125 C 1.175781 -25.3125 1.953125 -25.144531 2.953125 -25.03125 C 3.960938 -24.914062 4.71875 -24.859375 5.21875 -24.859375 L 18.703125 -24.859375 C 20.691406 -24.859375 22.234375 -25.082031 23.328125 -25.53125 L 23.328125 -20.859375 L 22.875 -20.859375 L 22.875 -21.515625 C 22.875 -22.097656 22.679688 -22.59375 22.296875 -23 C 21.910156 -23.414062 21.414062 -23.625 20.8125 -23.625 Z M 13.328125 -23.625 "/></g></g></g><g fill="#000000" fill-opacity="1"><g transform="translate(667.458986, 621.066733)"><g><path d="M 2.859375 -0.40625 C 3.515625 -0.40625 4.070312 -0.617188 4.53125 -1.046875 C 4.988281 -1.484375 5.226562 -2.003906 5.25 -2.609375 L 5.25 -22.265625 C 5.25 -22.867188 5.015625 -23.375 4.546875 -23.78125 C 4.078125 -24.195312 3.515625 -24.40625 2.859375 -24.40625 L 2.28125 -24.40625 L 2.28125 -24.828125 L 14.359375 -24.828125 C 15.484375 -24.828125 16.472656 -24.910156 17.328125 -25.078125 C 18.191406 -25.242188 18.742188 -25.378906 18.984375 -25.484375 L 18.984375 -20.765625 L 18.53125 -20.8125 L 18.53125 -21.4375 C 18.53125 -22.007812 18.335938 -22.503906 17.953125 -22.921875 C 17.566406 -23.335938 17.070312 -23.546875 16.46875 -23.546875 L 7.859375 -23.546875 L 7.859375 -13.03125 L 14.9375 -13.03125 C 15.488281 -13.03125 15.90625 -13.195312 16.1875 -13.53125 C 16.476562 -13.863281 16.625 -14.273438 16.625 -14.765625 L 16.625 -15.3125 L 17.09375 -15.3125 L 17.09375 -9.515625 L 16.625 -9.515625 L 16.625 -10.046875 C 16.625 -10.828125 16.335938 -11.351562 15.765625 -11.625 C 15.546875 -11.707031 15.3125 -11.765625 15.0625 -11.796875 L 7.859375 -11.796875 L 7.859375 -1.28125 L 14.359375 -1.28125 C 15.628906 -1.28125 16.695312 -1.5 17.5625 -1.9375 C 18.425781 -2.382812 19.085938 -2.910156 19.546875 -3.515625 C 20.003906 -4.117188 20.46875 -4.921875 20.9375 -5.921875 L 21.34375 -5.921875 L 19.078125 0 L 2.28125 0 L 2.28125 -0.40625 Z M 2.859375 -0.40625 "/></g></g></g><g fill="#000000" fill-opacity="1"><g transform="translate(690.045456, 621.066733)"><g><path d="M 29.375 -12.40625 C 29.375 -8.570312 28.179688 -5.546875 25.796875 -3.328125 C 23.410156 -1.109375 20.175781 0 16.09375 0 L 2.28125 0 L 2.28125 -0.40625 L 2.8125 -0.40625 C 3.476562 -0.40625 4.03125 -0.625 4.46875 -1.0625 C 4.90625 -1.507812 5.140625 -2.035156 5.171875 -2.640625 L 5.171875 -22.171875 C 5.140625 -22.835938 4.894531 -23.375 4.4375 -23.78125 C 3.988281 -24.195312 3.429688 -24.40625 2.765625 -24.40625 L 2.28125 -24.40625 L 2.28125 -24.828125 L 16.09375 -24.828125 C 18.800781 -24.828125 21.15625 -24.328125 23.15625 -23.328125 C 25.15625 -22.335938 26.691406 -20.90625 27.765625 -19.03125 C 28.835938 -17.15625 29.375 -14.945312 29.375 -12.40625 Z M 7.859375 -23.578125 L 7.859375 -1.234375 L 16.09375 -1.234375 C 19.269531 -1.234375 21.78125 -2.234375 23.625 -4.234375 C 25.46875 -6.234375 26.390625 -8.957031 26.390625 -12.40625 C 26.390625 -15.851562 25.46875 -18.578125 23.625 -20.578125 C 21.78125 -22.578125 19.269531 -23.578125 16.09375 -23.578125 Z M 7.859375 -23.578125 "/></g></g></g><g fill="#000000" fill-opacity="1"><g transform="translate(279.341591, 480.632943)"><g><path d="M 43.890625 -270.6875 C 59.867188 -277.320312 75.234375 -280.640625 89.984375 -280.640625 C 102.273438 -280.640625 114.9375 -276.09375 127.96875 -267 C 135.101562 -262.082031 143.09375 -252.492188 151.9375 -238.234375 C 157.84375 -228.398438 165.34375 -210.578125 174.4375 -184.765625 L 219.4375 -57.15625 C 229.757812 -28.632812 240.265625 -5.957031 250.953125 10.875 C 261.648438 27.71875 271.425781 40.378906 280.28125 48.859375 C 289.132812 57.347656 298.351562 63.3125 307.9375 66.75 C 317.53125 70.1875 325.457031 71.90625 331.71875 71.90625 C 337.988281 71.90625 343.582031 71.414062 348.5 70.4375 L 348.875 74.125 C 337.070312 78.0625 325.515625 80.03125 314.203125 80.03125 C 302.898438 80.03125 291.59375 77.140625 280.28125 71.359375 C 268.96875 65.578125 258.394531 57.523438 248.5625 47.203125 C 227.414062 25.816406 209.46875 -6.753906 194.71875 -50.515625 L 180.34375 -92.5625 L 79.296875 -92.5625 L 53.84375 -26.921875 C 52.613281 -23.972656 52 -21.019531 52 -18.0625 C 52 -15.113281 53.289062 -11.976562 55.875 -8.65625 C 58.457031 -5.34375 62.453125 -3.6875 67.859375 -3.6875 L 70.8125 -3.6875 L 70.8125 0 L -3.3125 0 L -3.3125 -3.6875 L 0 -3.6875 C 5.90625 -3.6875 11.6875 -5.46875 17.34375 -9.03125 C 23 -12.59375 27.671875 -17.941406 31.359375 -25.078125 L 122.8125 -244.140625 C 109.53125 -263.066406 93.054688 -272.53125 73.390625 -272.53125 C 64.546875 -272.53125 55.082031 -270.6875 45 -267 Z M 83.34375 -103.625 L 176.65625 -103.625 L 147.515625 -189.546875 C 141.859375 -206.023438 136.695312 -218.9375 132.03125 -228.28125 Z M 83.34375 -103.625 "/></g></g></g><g clip-path="url(#81dfa22d18)"><g clip-path="url(#8df1dc6580)"><path fill="#2563eb" d="M 589.078125 495.199219 L 630.207031 495.199219 L 630.207031 536.328125 L 589.078125 536.328125 Z M 589.078125 495.199219 " fill-opacity="1" fill-rule="nonzero"/></g></g><g clip-path="url(#b209fec2d9)"><g clip-path="url(#cf84661393)"><path fill="#000000" d="M 294.683594 387.433594 L 321.484375 387.433594 L 321.484375 414.234375 L 294.683594 414.234375 Z M 294.683594 387.433594 " fill-opacity="1" fill-rule="nonzero"/></g></g><g fill="#2563eb" fill-opacity="1"><g transform="translate(284.033867, 508.545816)"><g><path d="M 109.59375 -3.40625 L 114.015625 -3.40625 L 114.015625 0 L 39.484375 0 L 39.484375 -3.40625 L 43.90625 -3.40625 C 49.800781 -3.40625 54.90625 -5.503906 59.21875 -9.703125 C 63.53125 -13.898438 65.6875 -18.945312 65.6875 -24.84375 L 65.6875 -229.046875 L 29.265625 -227.015625 C 6.347656 -225.648438 -5.109375 -217.367188 -5.109375 -202.171875 C -5.109375 -196.035156 -3.125 -190.8125 0.84375 -186.5 C 4.820312 -182.195312 11.125 -179.816406 19.75 -179.359375 L 19.75 -177.3125 C 16.570312 -176.632812 13.394531 -176.296875 10.21875 -176.296875 C 0.226562 -176.296875 -7.257812 -180.265625 -12.25 -188.203125 C -15.195312 -192.742188 -16.671875 -197.738281 -16.671875 -203.1875 C -16.671875 -222.46875 -2.035156 -233.695312 27.234375 -236.875 C 27.460938 -236.875 38.75 -237.609375 61.09375 -239.078125 C 83.445312 -240.554688 101.085938 -242.546875 114.015625 -245.046875 L 114.703125 -241.640625 C 104.941406 -240.054688 98.019531 -236.765625 93.9375 -231.765625 C 89.851562 -226.773438 87.8125 -219.859375 87.8125 -211.015625 L 87.8125 -24.84375 C 88.039062 -18.945312 90.253906 -13.898438 94.453125 -9.703125 C 98.648438 -5.503906 103.695312 -3.40625 109.59375 -3.40625 Z M 109.59375 -3.40625 "/></g></g></g></svg>