<svg xmlns="http://www.w3.org/2000/svg" xmlns:xlink="http://www.w3.org/1999/xlink" width="1080" zoomAndPan="magnify" viewBox="0 0 810 809.999993" height="1080" preserveAspectRatio="xMidYMid meet" version="1.0"><defs><g/><clipPath id="c9ba7733f6"><path d="M 361 269 L 447 269 L 447 383 L 361 383 Z M 361 269 " clip-rule="nonzero"/></clipPath><clipPath id="bf599d9f2b"><path d="M 420.671875 269.144531 L 446.753906 284.886719 L 387.8125 382.550781 L 361.726562 366.808594 Z M 420.671875 269.144531 " clip-rule="nonzero"/></clipPath><clipPath id="bbecb2845d"><path d="M 420.671875 269.144531 L 446.753906 284.886719 L 387.8125 382.550781 L 361.726562 366.808594 Z M 420.671875 269.144531 " clip-rule="nonzero"/></clipPath><clipPath id="7417876a6f"><path d="M 364 284 L 422 284 L 422 343 L 364 343 Z M 364 284 " clip-rule="nonzero"/></clipPath><clipPath id="84aff21c49"><path d="M 386.304688 284.699219 L 421.84375 306.148438 L 399.992188 342.359375 L 364.449219 320.910156 Z M 386.304688 284.699219 " clip-rule="nonzero"/></clipPath><clipPath id="cb40739fa6"><path d="M 386.304688 284.699219 L 421.84375 306.148438 L 399.992188 342.359375 L 364.449219 320.910156 Z M 386.304688 284.699219 " clip-rule="nonzero"/></clipPath><clipPath id="26d61516d4"><path d="M 406 288 L 462 288 L 462 343 L 406 343 Z M 406 288 " clip-rule="nonzero"/></clipPath><clipPath id="d403728247"><path d="M 425.542969 288.5625 L 461.082031 310.011719 L 441.5625 342.359375 L 406.019531 320.910156 Z M 425.542969 288.5625 " clip-rule="nonzero"/></clipPath><clipPath id="8cdddcb6c1"><path d="M 425.542969 288.5625 L 461.082031 310.011719 L 441.5625 342.359375 L 406.019531 320.910156 Z M 425.542969 288.5625 " clip-rule="nonzero"/></clipPath></defs><rect x="-81" width="972" fill="#ffffff" y="-80.999999" height="971.999992" fill-opacity="1"/><rect x="-81" width="972" fill="#ffffff" y="-80.999999" height="971.999992" fill-opacity="1"/><g fill="#3d3b3a" fill-opacity="1"><g transform="translate(321.22126, 323.845882)"><g><path d="M 120.453125 -2.078125 C 120.910156 -2.078125 121.140625 -1.726562 121.140625 -1.03125 C 121.140625 -0.34375 120.910156 0 120.453125 0 C 118.367188 0 115.015625 -0.113281 110.390625 -0.34375 C 105.992188 -0.570312 102.753906 -0.6875 100.671875 -0.6875 C 98.234375 -0.6875 95.050781 -0.570312 91.125 -0.34375 C 87.414062 -0.113281 84.640625 0 82.796875 0 C 82.328125 0 82.09375 -0.34375 82.09375 -1.03125 C 82.09375 -1.726562 82.328125 -2.078125 82.796875 -2.078125 C 87.535156 -2.078125 90.945312 -2.507812 93.03125 -3.375 C 95.113281 -4.25 96.15625 -5.726562 96.15625 -7.8125 C 96.15625 -9.425781 95.519531 -11.679688 94.25 -14.578125 L 77.921875 -49.8125 L 36.625 -49.8125 L 24.8125 -21.34375 C 23.195312 -17.414062 22.390625 -14.175781 22.390625 -11.625 C 22.390625 -8.269531 23.773438 -5.835938 26.546875 -4.328125 C 29.328125 -2.828125 33.671875 -2.078125 39.578125 -2.078125 C 40.148438 -2.078125 40.4375 -1.726562 40.4375 -1.03125 C 40.4375 -0.34375 40.148438 0 39.578125 0 C 37.492188 0 34.484375 -0.113281 30.546875 -0.34375 C 26.148438 -0.570312 22.332031 -0.6875 19.09375 -0.6875 C 16.195312 -0.6875 12.785156 -0.570312 8.859375 -0.34375 C 5.378906 -0.113281 2.539062 0 0.34375 0 C -0.226562 0 -0.515625 -0.34375 -0.515625 -1.03125 C -0.515625 -1.726562 -0.226562 -2.078125 0.34375 -2.078125 C 3.582031 -2.078125 6.328125 -2.65625 8.578125 -3.8125 C 10.835938 -4.96875 12.976562 -7.050781 15 -10.0625 C 17.03125 -13.070312 19.203125 -17.351562 21.515625 -22.90625 L 57.796875 -110.21875 C 58.023438 -110.5625 58.398438 -110.734375 58.921875 -110.734375 C 59.441406 -110.734375 59.757812 -110.5625 59.875 -110.21875 L 100.140625 -23.78125 C 102.804688 -17.875 105.179688 -13.390625 107.265625 -10.328125 C 109.347656 -7.265625 111.398438 -5.125 113.421875 -3.90625 C 115.441406 -2.6875 117.785156 -2.078125 120.453125 -2.078125 Z M 38.015625 -52.9375 L 76.375 -52.9375 L 56.0625 -96.5 Z M 38.015625 -52.9375 "/></g></g></g><g fill="#2563eb" fill-opacity="1"><g transform="translate(417.680792, 408.605487)"><g><path d="M 33.328125 -14.0625 C 33.328125 -10.46875 33.703125 -7.859375 34.453125 -6.234375 C 35.203125 -4.617188 36.617188 -3.519531 38.703125 -2.9375 C 40.785156 -2.363281 44.140625 -2.078125 48.765625 -2.078125 C 49.003906 -2.078125 49.125 -1.726562 49.125 -1.03125 C 49.125 -0.34375 49.003906 0 48.765625 0 C 45.296875 0 42.578125 -0.0546875 40.609375 -0.171875 L 28.46875 -0.34375 L 16.828125 -0.171875 C 14.753906 -0.0546875 11.921875 0 8.328125 0 C 7.984375 0 7.8125 -0.34375 7.8125 -1.03125 C 7.8125 -1.726562 7.984375 -2.078125 8.328125 -2.078125 C 12.835938 -2.078125 16.160156 -2.363281 18.296875 -2.9375 C 20.441406 -3.519531 21.921875 -4.648438 22.734375 -6.328125 C 23.546875 -8.015625 23.953125 -10.59375 23.953125 -14.0625 L 23.953125 -94.421875 C 23.953125 -97.890625 23.546875 -100.429688 22.734375 -102.046875 C 21.921875 -103.671875 20.441406 -104.800781 18.296875 -105.4375 C 16.160156 -106.070312 12.835938 -106.390625 8.328125 -106.390625 C 7.984375 -106.390625 7.8125 -106.738281 7.8125 -107.4375 C 7.8125 -108.132812 7.984375 -108.484375 8.328125 -108.484375 L 16.828125 -108.296875 C 21.691406 -108.066406 25.570312 -107.953125 28.46875 -107.953125 C 31.707031 -107.953125 35.753906 -108.066406 40.609375 -108.296875 L 48.765625 -108.484375 C 49.003906 -108.484375 49.125 -108.132812 49.125 -107.4375 C 49.125 -106.738281 49.003906 -106.390625 48.765625 -106.390625 C 44.253906 -106.390625 40.925781 -106.039062 38.78125 -105.34375 C 36.644531 -104.65625 35.203125 -103.472656 34.453125 -101.796875 C 33.703125 -100.117188 33.328125 -97.546875 33.328125 -94.078125 Z M 33.328125 -14.0625 "/></g></g></g><g clip-path="url(#c9ba7733f6)"><g clip-path="url(#bf599d9f2b)"><g clip-path="url(#bbecb2845d)"><path fill="#ffffff" d="M 420.671875 269.144531 L 446.753906 284.886719 L 387.8125 382.550781 L 361.726562 366.808594 Z M 420.671875 269.144531 " fill-opacity="1" fill-rule="nonzero"/></g></g></g><g clip-path="url(#7417876a6f)"><g clip-path="url(#84aff21c49)"><g clip-path="url(#cb40739fa6)"><path fill="#ffffff" d="M 386.304688 284.699219 L 421.84375 306.148438 L 399.992188 342.359375 L 364.449219 320.910156 Z M 386.304688 284.699219 " fill-opacity="1" fill-rule="nonzero"/></g></g></g><g clip-path="url(#26d61516d4)"><g clip-path="url(#d403728247)"><g clip-path="url(#8cdddcb6c1)"><path fill="#ffffff" d="M 425.542969 288.5625 L 461.082031 310.011719 L 441.558594 342.359375 L 406.019531 320.910156 Z M 425.542969 288.5625 " fill-opacity="1" fill-rule="nonzero"/></g></g></g><path stroke-linecap="butt" transform="matrix(0.431053, -0.613753, 0.613753, 0.431053, 351.023278, 395.563711)" fill="none" stroke-linejoin="miter" d="M -0.000561531 1.999116 L 252.475521 2.001439 " stroke="#3d3b3a" stroke-width="4" stroke-opacity="1" stroke-miterlimit="4"/><g fill="#3d3b3a" fill-opacity="1"><g transform="translate(136.215012, 507.079218)"><g><path d="M 14.265625 -4.140625 L 5.015625 -4.140625 L 3.25 0 L 0.03125 0 L 8.125 -18.359375 L 11.3125 -18.359375 L 19.328125 0 L 16.03125 0 Z M 13.09375 -6.90625 L 9.625 -15.0625 L 6.171875 -6.90625 Z M 13.09375 -6.90625 "/></g></g></g><g fill="#3d3b3a" fill-opacity="1"><g transform="translate(166.062796, 507.079218)"><g><path d="M 14.984375 -9.03125 L 17.6875 -9.03125 L 17.6875 -2.25 C 16.738281 -1.539062 15.617188 -0.96875 14.328125 -0.53125 C 13.046875 -0.09375 11.785156 0.125 10.546875 0.125 C 7.835938 0.125 5.550781 -0.769531 3.6875 -2.5625 C 1.820312 -4.351562 0.890625 -6.5625 0.890625 -9.1875 C 0.890625 -11.8125 1.832031 -14.007812 3.71875 -15.78125 C 5.613281 -17.550781 7.953125 -18.4375 10.734375 -18.4375 C 12.023438 -18.4375 13.296875 -18.203125 14.546875 -17.734375 C 15.796875 -17.273438 16.875 -16.65625 17.78125 -15.875 L 16.03125 -13.59375 C 14.519531 -14.988281 12.753906 -15.6875 10.734375 -15.6875 C 8.859375 -15.6875 7.273438 -15.054688 5.984375 -13.796875 C 4.691406 -12.535156 4.046875 -11 4.046875 -9.1875 C 4.046875 -7.34375 4.695312 -5.789062 6 -4.53125 C 7.300781 -3.28125 8.882812 -2.65625 10.75 -2.65625 C 12.164062 -2.65625 13.578125 -3.070312 14.984375 -3.90625 Z M 14.984375 -9.03125 "/></g></g></g><g fill="#3d3b3a" fill-opacity="1"><g transform="translate(196.199073, 507.079218)"><g><path d="M 21.296875 0 L 18.125 0 L 13.765625 -14.328125 L 9.359375 0 L 6.171875 0 L 0.078125 -18.359375 L 3.40625 -18.359375 L 7.875 -3.4375 L 12.296875 -18.34375 L 15.34375 -18.359375 L 19.8125 -3.4375 L 24.234375 -18.359375 L 27.4375 -18.359375 Z M 21.296875 0 "/></g></g></g><g fill="#3d3b3a" fill-opacity="1"><g transform="translate(233.862407, 507.079218)"><g><path d="M 14.265625 -4.140625 L 5.015625 -4.140625 L 3.25 0 L 0.03125 0 L 8.125 -18.359375 L 11.3125 -18.359375 L 19.328125 0 L 16.03125 0 Z M 13.09375 -6.90625 L 9.625 -15.0625 L 6.171875 -6.90625 Z M 13.09375 -6.90625 "/></g></g></g><g fill="#3d3b3a" fill-opacity="1"><g transform="translate(263.710188, 507.079218)"><g><path d="M 9.9375 -6.109375 L 9.9375 0 L 6.875 0 L 6.875 -6 L 0.03125 -18.359375 L 3.140625 -18.359375 L 8.390625 -9.421875 L 13.53125 -18.359375 L 16.6875 -18.359375 Z M 9.9375 -6.109375 "/></g></g></g><g fill="#3d3b3a" fill-opacity="1"><g transform="translate(290.909085, 507.079218)"><g/></g></g><g fill="#3d3b3a" fill-opacity="1"><g transform="translate(308.168079, 507.079218)"><g><path d="M 5.515625 0 L 2.40625 0 L 2.40625 -18.359375 L 5.515625 -18.359375 Z M 5.515625 0 "/></g></g></g><g fill="#3d3b3a" fill-opacity="1"><g transform="translate(326.58105, 507.079218)"><g><path d="M 18.34375 0 L 15.296875 0 L 5.515625 -13.171875 L 5.515625 0 L 2.40625 0 L 2.40625 -18.359375 L 5.453125 -18.359375 L 15.296875 -5.171875 L 15.296875 -18.359375 L 18.34375 -18.359375 Z M 18.34375 0 "/></g></g></g><g fill="#3d3b3a" fill-opacity="1"><g transform="translate(357.845082, 507.079218)"><g><path d="M 10.59375 0 L 7.390625 0 L 0.078125 -18.359375 L 3.40625 -18.359375 L 9.078125 -3.4375 L 14.796875 -18.359375 L 18.015625 -18.359375 Z M 10.59375 0 "/></g></g></g><g fill="#3d3b3a" fill-opacity="1"><g transform="translate(386.434002, 507.079218)"><g><path d="M 15.53125 -15.578125 L 5.515625 -15.578125 L 5.515625 -10.625 L 14.484375 -10.625 L 14.484375 -7.84375 L 5.515625 -7.84375 L 5.515625 -2.78125 L 15.84375 -2.78125 L 15.84375 0 L 2.40625 0 L 2.40625 -18.359375 L 15.53125 -18.359375 Z M 15.53125 -15.578125 "/></g></g></g><g fill="#3d3b3a" fill-opacity="1"><g transform="translate(414.13122, 507.079218)"><g><path d="M 8.453125 -18.5 C 10.828125 -18.5 12.96875 -17.867188 14.875 -16.609375 L 13.59375 -13.875 C 11.71875 -15.007812 9.925781 -15.578125 8.21875 -15.578125 C 7.289062 -15.578125 6.554688 -15.410156 6.015625 -15.078125 C 5.484375 -14.753906 5.21875 -14.285156 5.21875 -13.671875 C 5.21875 -13.054688 5.460938 -12.535156 5.953125 -12.109375 C 6.441406 -11.679688 7.050781 -11.363281 7.78125 -11.15625 C 8.519531 -10.957031 9.316406 -10.703125 10.171875 -10.390625 C 11.035156 -10.085938 11.832031 -9.765625 12.5625 -9.421875 C 13.300781 -9.085938 13.910156 -8.554688 14.390625 -7.828125 C 14.867188 -7.109375 15.109375 -6.226562 15.109375 -5.1875 C 15.109375 -3.582031 14.460938 -2.296875 13.171875 -1.328125 C 11.890625 -0.367188 10.226562 0.109375 8.1875 0.109375 C 6.789062 0.109375 5.4375 -0.148438 4.125 -0.671875 C 2.8125 -1.203125 1.664062 -1.914062 0.6875 -2.8125 L 2.015625 -5.484375 C 2.941406 -4.628906 3.960938 -3.96875 5.078125 -3.5 C 6.191406 -3.039062 7.242188 -2.8125 8.234375 -2.8125 C 9.316406 -2.8125 10.160156 -3.003906 10.765625 -3.390625 C 11.367188 -3.785156 11.671875 -4.332031 11.671875 -5.03125 C 11.671875 -5.664062 11.425781 -6.195312 10.9375 -6.625 C 10.445312 -7.050781 9.832031 -7.363281 9.09375 -7.5625 C 8.363281 -7.769531 7.570312 -8.015625 6.71875 -8.296875 C 5.863281 -8.585938 5.066406 -8.894531 4.328125 -9.21875 C 3.597656 -9.539062 2.984375 -10.0625 2.484375 -10.78125 C 1.992188 -11.5 1.75 -12.363281 1.75 -13.375 C 1.75 -14.9375 2.363281 -16.179688 3.59375 -17.109375 C 4.820312 -18.035156 6.441406 -18.5 8.453125 -18.5 Z M 8.453125 -18.5 "/></g></g></g><g fill="#3d3b3a" fill-opacity="1"><g transform="translate(440.936715, 507.079218)"><g><path d="M 14.953125 -15.578125 L 9.125 -15.578125 L 9.125 0 L 6.03125 0 L 6.03125 -15.578125 L 0.234375 -15.578125 L 0.234375 -18.359375 L 14.953125 -18.359375 Z M 14.953125 -15.578125 "/></g></g></g><g fill="#3d3b3a" fill-opacity="1"><g transform="translate(466.614464, 507.079218)"><g><path d="M 21.828125 0 L 18.96875 0 L 18.9375 -13.71875 L 13.140625 -1.921875 L 11.125 -1.921875 L 5.328125 -13.71875 L 5.328125 0 L 2.40625 0 L 2.40625 -18.359375 L 6.09375 -18.359375 L 12.140625 -6.171875 L 18.1875 -18.359375 L 21.828125 -18.359375 Z M 21.828125 0 "/></g></g></g><g fill="#3d3b3a" fill-opacity="1"><g transform="translate(501.366644, 507.079218)"><g><path d="M 15.53125 -15.578125 L 5.515625 -15.578125 L 5.515625 -10.625 L 14.484375 -10.625 L 14.484375 -7.84375 L 5.515625 -7.84375 L 5.515625 -2.78125 L 15.84375 -2.78125 L 15.84375 0 L 2.40625 0 L 2.40625 -18.359375 L 15.53125 -18.359375 Z M 15.53125 -15.578125 "/></g></g></g><g fill="#3d3b3a" fill-opacity="1"><g transform="translate(529.06384, 507.079218)"><g><path d="M 18.34375 0 L 15.296875 0 L 5.515625 -13.171875 L 5.515625 0 L 2.40625 0 L 2.40625 -18.359375 L 5.453125 -18.359375 L 15.296875 -5.171875 L 15.296875 -18.359375 L 18.34375 -18.359375 Z M 18.34375 0 "/></g></g></g><g fill="#3d3b3a" fill-opacity="1"><g transform="translate(560.327861, 507.079218)"><g><path d="M 14.953125 -15.578125 L 9.125 -15.578125 L 9.125 0 L 6.03125 0 L 6.03125 -15.578125 L 0.234375 -15.578125 L 0.234375 -18.359375 L 14.953125 -18.359375 Z M 14.953125 -15.578125 "/></g></g></g><g fill="#3d3b3a" fill-opacity="1"><g transform="translate(586.00561, 507.079218)"><g/></g></g><g fill="#3d3b3a" fill-opacity="1"><g transform="translate(603.264627, 507.079218)"><g><path d="M 5.515625 -2.8125 L 13.453125 -2.8125 L 13.453125 0 L 2.40625 0 L 2.40625 -18.359375 L 5.515625 -18.359375 Z M 5.515625 -2.8125 "/></g></g></g><g fill="#3d3b3a" fill-opacity="1"><g transform="translate(627.762169, 507.079218)"><g><path d="M 14.953125 -15.578125 L 9.125 -15.578125 L 9.125 0 L 6.03125 0 L 6.03125 -15.578125 L 0.234375 -15.578125 L 0.234375 -18.359375 L 14.953125 -18.359375 Z M 14.953125 -15.578125 "/></g></g></g><g fill="#3d3b3a" fill-opacity="1"><g transform="translate(653.439918, 507.079218)"><g><path d="M 2.40625 -18.359375 L 9.9375 -18.359375 C 12.6875 -18.359375 14.957031 -17.492188 16.75 -15.765625 C 18.539062 -14.035156 19.4375 -11.835938 19.4375 -9.171875 C 19.4375 -6.515625 18.535156 -4.320312 16.734375 -2.59375 C 14.929688 -0.863281 12.640625 0 9.859375 0 L 2.40625 0 Z M 5.515625 -15.578125 L 5.515625 -2.78125 L 10.015625 -2.78125 C 11.816406 -2.78125 13.316406 -3.378906 14.515625 -4.578125 C 15.710938 -5.773438 16.3125 -7.300781 16.3125 -9.15625 C 16.3125 -11.007812 15.695312 -12.539062 14.46875 -13.75 C 13.238281 -14.96875 11.710938 -15.578125 9.890625 -15.578125 Z M 5.515625 -15.578125 "/></g></g></g><g fill="#2563eb" fill-opacity="1"><g transform="translate(258.855713, 566.683347)"><g><path d="M 0.671875 0 C 0.617188 0 0.59375 -0.0507812 0.59375 -0.15625 C 0.59375 -0.269531 0.617188 -0.328125 0.671875 -0.328125 C 1.160156 -0.328125 1.523438 -0.367188 1.765625 -0.453125 C 2.015625 -0.546875 2.203125 -0.71875 2.328125 -0.96875 C 2.460938 -1.226562 2.570312 -1.640625 2.65625 -2.203125 L 4.890625 -14.765625 C 4.960938 -15.078125 5 -15.378906 5 -15.671875 C 5 -16.046875 4.890625 -16.300781 4.671875 -16.4375 C 4.453125 -16.570312 4.070312 -16.640625 3.53125 -16.640625 C 3.476562 -16.640625 3.453125 -16.691406 3.453125 -16.796875 C 3.453125 -16.910156 3.476562 -16.96875 3.53125 -16.96875 L 4.78125 -16.953125 C 5.5 -16.910156 6.078125 -16.890625 6.515625 -16.890625 C 7.054688 -16.890625 7.691406 -16.910156 8.421875 -16.953125 L 9.59375 -16.96875 C 9.644531 -16.96875 9.671875 -16.910156 9.671875 -16.796875 C 9.671875 -16.691406 9.644531 -16.640625 9.59375 -16.640625 C 9.101562 -16.640625 8.726562 -16.585938 8.46875 -16.484375 C 8.21875 -16.378906 8.03125 -16.195312 7.90625 -15.9375 C 7.789062 -15.6875 7.691406 -15.28125 7.609375 -14.71875 L 5.375 -2.203125 C 5.300781 -1.859375 5.265625 -1.550781 5.265625 -1.28125 C 5.265625 -0.894531 5.375 -0.640625 5.59375 -0.515625 C 5.8125 -0.390625 6.191406 -0.328125 6.734375 -0.328125 C 6.773438 -0.328125 6.796875 -0.269531 6.796875 -0.15625 C 6.796875 -0.0507812 6.773438 0 6.734375 0 C 6.222656 0 5.816406 -0.0078125 5.515625 -0.03125 L 3.6875 -0.046875 L 1.921875 -0.03125 C 1.617188 -0.0078125 1.203125 0 0.671875 0 Z M 0.671875 0 "/></g></g></g><g fill="#2563eb" fill-opacity="1"><g transform="translate(276.130795, 566.683347)"><g><path d="M 12.109375 -2.09375 C 12.148438 -2.125 12.175781 -2.140625 12.1875 -2.140625 C 12.25 -2.140625 12.296875 -2.109375 12.328125 -2.046875 C 12.367188 -1.984375 12.367188 -1.925781 12.328125 -1.875 C 11.710938 -1.144531 11.164062 -0.609375 10.6875 -0.265625 C 10.207031 0.078125 9.710938 0.25 9.203125 0.25 C 8.335938 0.25 7.90625 -0.257812 7.90625 -1.28125 C 7.90625 -1.550781 7.945312 -1.929688 8.03125 -2.421875 L 8.828125 -6.734375 C 8.921875 -7.242188 8.96875 -7.648438 8.96875 -7.953125 C 8.96875 -8.835938 8.675781 -9.28125 8.09375 -9.28125 C 7.582031 -9.28125 7.054688 -8.953125 6.515625 -8.296875 C 5.972656 -7.640625 5.460938 -6.675781 4.984375 -5.40625 C 4.503906 -4.132812 4.101562 -2.613281 3.78125 -0.84375 L 3.6875 -0.328125 C 3.601562 0.0351562 3.097656 0.21875 2.171875 0.21875 C 1.578125 0.21875 1.28125 0.144531 1.28125 0 L 1.390625 -0.5625 C 1.566406 -1.414062 1.664062 -1.898438 1.6875 -2.015625 L 2.796875 -8.0625 C 2.828125 -8.226562 2.84375 -8.425781 2.84375 -8.65625 C 2.84375 -9.144531 2.691406 -9.390625 2.390625 -9.390625 C 2.003906 -9.390625 1.476562 -9.03125 0.8125 -8.3125 C 0.789062 -8.289062 0.765625 -8.28125 0.734375 -8.28125 C 0.679688 -8.28125 0.632812 -8.3125 0.59375 -8.375 C 0.5625 -8.4375 0.5625 -8.492188 0.59375 -8.546875 C 1.25 -9.304688 1.832031 -9.859375 2.34375 -10.203125 C 2.863281 -10.554688 3.382812 -10.734375 3.90625 -10.734375 C 4.757812 -10.734375 5.1875 -10.25 5.1875 -9.28125 C 5.1875 -9.007812 5.160156 -8.710938 5.109375 -8.390625 L 4.671875 -5.921875 C 5.304688 -7.492188 6.035156 -8.703125 6.859375 -9.546875 C 7.679688 -10.398438 8.554688 -10.828125 9.484375 -10.828125 C 10.722656 -10.828125 11.34375 -10.078125 11.34375 -8.578125 C 11.34375 -8.234375 11.300781 -7.789062 11.21875 -7.25 L 10.3125 -2.421875 C 10.257812 -2.148438 10.234375 -1.929688 10.234375 -1.765625 C 10.234375 -1.347656 10.378906 -1.140625 10.671875 -1.140625 C 10.847656 -1.140625 11.050781 -1.21875 11.28125 -1.375 C 11.507812 -1.539062 11.785156 -1.78125 12.109375 -2.09375 Z M 12.109375 -2.09375 "/></g></g></g><g fill="#2563eb" fill-opacity="1"><g transform="translate(297.179666, 566.683347)"><g><path d="M 2.9375 0.296875 C 2.15625 0.296875 1.492188 0.125 0.953125 -0.21875 C 0.410156 -0.5625 0.140625 -0.976562 0.140625 -1.46875 C 0.140625 -1.882812 0.253906 -2.203125 0.484375 -2.421875 C 0.722656 -2.648438 1.015625 -2.765625 1.359375 -2.765625 C 1.660156 -2.765625 1.898438 -2.679688 2.078125 -2.515625 C 2.265625 -2.359375 2.476562 -2.097656 2.71875 -1.734375 C 2.945312 -1.359375 3.164062 -1.078125 3.375 -0.890625 C 3.582031 -0.710938 3.867188 -0.625 4.234375 -0.625 C 4.546875 -0.625 4.773438 -0.707031 4.921875 -0.875 C 5.078125 -1.050781 5.179688 -1.328125 5.234375 -1.703125 C 5.253906 -1.773438 5.265625 -1.882812 5.265625 -2.03125 C 5.265625 -2.5625 5.109375 -3.015625 4.796875 -3.390625 C 4.492188 -3.773438 4.019531 -4.21875 3.375 -4.71875 C 2.71875 -5.269531 2.226562 -5.738281 1.90625 -6.125 C 1.59375 -6.507812 1.4375 -6.972656 1.4375 -7.515625 C 1.4375 -7.628906 1.457031 -7.796875 1.5 -8.015625 C 1.582031 -8.460938 1.8125 -8.894531 2.1875 -9.3125 C 2.5625 -9.726562 3.039062 -10.070312 3.625 -10.34375 C 4.21875 -10.613281 4.859375 -10.75 5.546875 -10.75 C 6.410156 -10.75 7.082031 -10.601562 7.5625 -10.3125 C 8.039062 -10.03125 8.253906 -9.632812 8.203125 -9.125 C 8.148438 -8.78125 8 -8.507812 7.75 -8.3125 C 7.507812 -8.113281 7.253906 -8.015625 6.984375 -8.015625 C 6.597656 -8.015625 6.3125 -8.097656 6.125 -8.265625 C 5.945312 -8.441406 5.789062 -8.691406 5.65625 -9.015625 C 5.488281 -9.335938 5.320312 -9.582031 5.15625 -9.75 C 5 -9.914062 4.738281 -10 4.375 -10 C 4.082031 -10 3.851562 -9.910156 3.6875 -9.734375 C 3.53125 -9.566406 3.429688 -9.375 3.390625 -9.15625 C 3.378906 -9.082031 3.375 -8.972656 3.375 -8.828125 C 3.375 -8.359375 3.523438 -7.941406 3.828125 -7.578125 C 4.140625 -7.210938 4.609375 -6.773438 5.234375 -6.265625 C 5.921875 -5.710938 6.425781 -5.226562 6.75 -4.8125 C 7.082031 -4.40625 7.25 -3.929688 7.25 -3.390625 C 7.25 -3.304688 7.234375 -3.15625 7.203125 -2.9375 C 7.109375 -2.445312 6.867188 -1.953125 6.484375 -1.453125 C 6.109375 -0.953125 5.609375 -0.535156 4.984375 -0.203125 C 4.359375 0.128906 3.675781 0.296875 2.9375 0.296875 Z M 2.9375 0.296875 "/></g></g></g><g fill="#2563eb" fill-opacity="1"><g transform="translate(313.911752, 566.683347)"><g><path d="M 7.734375 -10.671875 C 8.679688 -10.671875 9.394531 -10.425781 9.875 -9.9375 C 10.351562 -9.445312 10.59375 -8.742188 10.59375 -7.828125 C 10.59375 -7.515625 10.566406 -7.195312 10.515625 -6.875 C 10.328125 -5.65625 9.898438 -4.515625 9.234375 -3.453125 C 8.578125 -2.398438 7.773438 -1.554688 6.828125 -0.921875 C 5.878906 -0.285156 4.914062 0.03125 3.9375 0.03125 C 3.644531 0.03125 3.28125 0.0078125 2.84375 -0.03125 L 1.984375 4.828125 C 1.910156 5.265625 1.875 5.53125 1.875 5.625 C 1.875 5.894531 1.9375 6.085938 2.0625 6.203125 C 2.1875 6.316406 2.394531 6.375 2.6875 6.375 C 2.78125 6.375 2.972656 6.359375 3.265625 6.328125 C 3.335938 6.328125 3.382812 6.367188 3.40625 6.453125 C 3.4375 6.546875 3.414062 6.601562 3.34375 6.625 L -1.8125 7.46875 C -1.875 7.488281 -1.914062 7.441406 -1.9375 7.328125 C -1.96875 7.222656 -1.945312 7.160156 -1.875 7.140625 C -1.507812 7.046875 -1.242188 6.941406 -1.078125 6.828125 C -0.921875 6.710938 -0.796875 6.523438 -0.703125 6.265625 C -0.609375 6.015625 -0.507812 5.601562 -0.40625 5.03125 L 1.921875 -7.984375 C 1.546875 -7.765625 1.085938 -7.457031 0.546875 -7.0625 C 0.523438 -7.039062 0.5 -7.03125 0.46875 -7.03125 C 0.394531 -7.03125 0.335938 -7.066406 0.296875 -7.140625 C 0.265625 -7.210938 0.285156 -7.273438 0.359375 -7.328125 C 1.078125 -7.910156 1.628906 -8.328125 2.015625 -8.578125 L 2.359375 -10.484375 C 2.359375 -10.515625 2.515625 -10.625 2.828125 -10.8125 C 3.328125 -11.113281 3.75 -11.398438 4.09375 -11.671875 C 4.4375 -11.941406 4.65625 -12.25 4.75 -12.59375 C 4.769531 -12.664062 4.828125 -12.691406 4.921875 -12.671875 C 5.023438 -12.660156 5.066406 -12.617188 5.046875 -12.546875 L 4.59375 -9.96875 C 5.675781 -10.4375 6.722656 -10.671875 7.734375 -10.671875 Z M 8.0625 -5.96875 C 8.101562 -6.300781 8.125 -6.546875 8.125 -6.703125 C 8.125 -7.484375 7.945312 -8.117188 7.59375 -8.609375 C 7.238281 -9.097656 6.660156 -9.34375 5.859375 -9.34375 C 5.367188 -9.34375 4.898438 -9.28125 4.453125 -9.15625 L 3.046875 -1.171875 C 3.640625 -0.910156 4.269531 -0.78125 4.9375 -0.78125 C 5.8125 -0.78125 6.5 -1.242188 7 -2.171875 C 7.507812 -3.109375 7.863281 -4.375 8.0625 -5.96875 Z M 8.0625 -5.96875 "/></g></g></g><g fill="#2563eb" fill-opacity="1"><g transform="translate(333.060138, 566.683347)"><g><path d="M 4.703125 -13.546875 C 4.222656 -13.546875 3.84375 -13.6875 3.5625 -13.96875 C 3.289062 -14.25 3.15625 -14.632812 3.15625 -15.125 C 3.15625 -15.5625 3.289062 -15.914062 3.5625 -16.1875 C 3.84375 -16.457031 4.222656 -16.59375 4.703125 -16.59375 C 5.171875 -16.59375 5.535156 -16.457031 5.796875 -16.1875 C 6.054688 -15.914062 6.1875 -15.5625 6.1875 -15.125 C 6.1875 -14.613281 6.054688 -14.222656 5.796875 -13.953125 C 5.535156 -13.679688 5.171875 -13.546875 4.703125 -13.546875 Z M 2.875 0.25 C 2.007812 0.25 1.578125 -0.257812 1.578125 -1.28125 C 1.578125 -1.550781 1.617188 -1.929688 1.703125 -2.421875 L 2.828125 -8.0625 C 2.878906 -8.320312 2.90625 -8.53125 2.90625 -8.6875 C 2.90625 -8.925781 2.859375 -9.101562 2.765625 -9.21875 C 2.679688 -9.332031 2.566406 -9.390625 2.421875 -9.390625 C 2.035156 -9.390625 1.519531 -9.03125 0.875 -8.3125 C 0.851562 -8.289062 0.820312 -8.28125 0.78125 -8.28125 C 0.707031 -8.28125 0.648438 -8.3125 0.609375 -8.375 C 0.578125 -8.4375 0.582031 -8.492188 0.625 -8.546875 C 1.28125 -9.304688 1.867188 -9.859375 2.390625 -10.203125 C 2.910156 -10.554688 3.425781 -10.734375 3.9375 -10.734375 C 4.800781 -10.734375 5.234375 -10.257812 5.234375 -9.3125 C 5.234375 -9.007812 5.195312 -8.703125 5.125 -8.390625 L 3.984375 -2.421875 C 3.953125 -2.253906 3.9375 -2.046875 3.9375 -1.796875 C 3.9375 -1.359375 4.070312 -1.140625 4.34375 -1.140625 C 4.519531 -1.140625 4.722656 -1.21875 4.953125 -1.375 C 5.179688 -1.539062 5.457031 -1.78125 5.78125 -2.09375 C 5.820312 -2.125 5.859375 -2.140625 5.890625 -2.140625 C 5.941406 -2.140625 5.984375 -2.109375 6.015625 -2.046875 C 6.054688 -1.984375 6.050781 -1.925781 6 -1.875 C 5.382812 -1.144531 4.835938 -0.609375 4.359375 -0.265625 C 3.878906 0.078125 3.382812 0.25 2.875 0.25 Z M 2.875 0.25 "/></g></g></g><g fill="#2563eb" fill-opacity="1"><g transform="translate(347.918903, 566.683347)"><g><path d="M 8.0625 -10.734375 C 8.53125 -10.734375 8.976562 -10.554688 9.40625 -10.203125 C 9.832031 -9.859375 10.007812 -9.472656 9.9375 -9.046875 C 9.90625 -8.773438 9.78125 -8.519531 9.5625 -8.28125 C 9.34375 -8.039062 9.070312 -7.921875 8.75 -7.921875 C 8.414062 -7.921875 8.0625 -8.078125 7.6875 -8.390625 C 7.5625 -8.484375 7.429688 -8.566406 7.296875 -8.640625 C 7.171875 -8.710938 7.046875 -8.75 6.921875 -8.75 C 6.617188 -8.75 6.238281 -8.265625 5.78125 -7.296875 C 5.332031 -6.335938 4.90625 -5.191406 4.5 -3.859375 C 4.09375 -2.535156 3.796875 -1.367188 3.609375 -0.359375 L 3.609375 -0.328125 C 3.578125 -0.160156 3.429688 -0.03125 3.171875 0.0625 C 2.921875 0.164062 2.5625 0.21875 2.09375 0.21875 C 1.488281 0.21875 1.1875 0.144531 1.1875 0 C 1.207031 -0.125 1.265625 -0.394531 1.359375 -0.8125 C 1.460938 -1.226562 1.550781 -1.628906 1.625 -2.015625 L 2.75 -8.0625 C 2.78125 -8.351562 2.796875 -8.546875 2.796875 -8.640625 C 2.796875 -9.140625 2.632812 -9.390625 2.3125 -9.390625 C 1.945312 -9.390625 1.429688 -9.03125 0.765625 -8.3125 C 0.742188 -8.289062 0.710938 -8.28125 0.671875 -8.28125 C 0.597656 -8.28125 0.546875 -8.3125 0.515625 -8.375 C 0.484375 -8.4375 0.492188 -8.492188 0.546875 -8.546875 C 1.191406 -9.304688 1.769531 -9.859375 2.28125 -10.203125 C 2.800781 -10.554688 3.328125 -10.734375 3.859375 -10.734375 C 4.304688 -10.734375 4.628906 -10.609375 4.828125 -10.359375 C 5.023438 -10.117188 5.125 -9.757812 5.125 -9.28125 C 5.125 -9.007812 5.097656 -8.710938 5.046875 -8.390625 L 4.515625 -5.40625 C 5.578125 -8.957031 6.757812 -10.734375 8.0625 -10.734375 Z M 8.0625 -10.734375 "/></g></g></g><g fill="#2563eb" fill-opacity="1"><g transform="translate(365.736981, 566.683347)"><g><path d="M 4.703125 -13.546875 C 4.222656 -13.546875 3.84375 -13.6875 3.5625 -13.96875 C 3.289062 -14.25 3.15625 -14.632812 3.15625 -15.125 C 3.15625 -15.5625 3.289062 -15.914062 3.5625 -16.1875 C 3.84375 -16.457031 4.222656 -16.59375 4.703125 -16.59375 C 5.171875 -16.59375 5.535156 -16.457031 5.796875 -16.1875 C 6.054688 -15.914062 6.1875 -15.5625 6.1875 -15.125 C 6.1875 -14.613281 6.054688 -14.222656 5.796875 -13.953125 C 5.535156 -13.679688 5.171875 -13.546875 4.703125 -13.546875 Z M 2.875 0.25 C 2.007812 0.25 1.578125 -0.257812 1.578125 -1.28125 C 1.578125 -1.550781 1.617188 -1.929688 1.703125 -2.421875 L 2.828125 -8.0625 C 2.878906 -8.320312 2.90625 -8.53125 2.90625 -8.6875 C 2.90625 -8.925781 2.859375 -9.101562 2.765625 -9.21875 C 2.679688 -9.332031 2.566406 -9.390625 2.421875 -9.390625 C 2.035156 -9.390625 1.519531 -9.03125 0.875 -8.3125 C 0.851562 -8.289062 0.820312 -8.28125 0.78125 -8.28125 C 0.707031 -8.28125 0.648438 -8.3125 0.609375 -8.375 C 0.578125 -8.4375 0.582031 -8.492188 0.625 -8.546875 C 1.28125 -9.304688 1.867188 -9.859375 2.390625 -10.203125 C 2.910156 -10.554688 3.425781 -10.734375 3.9375 -10.734375 C 4.800781 -10.734375 5.234375 -10.257812 5.234375 -9.3125 C 5.234375 -9.007812 5.195312 -8.703125 5.125 -8.390625 L 3.984375 -2.421875 C 3.953125 -2.253906 3.9375 -2.046875 3.9375 -1.796875 C 3.9375 -1.359375 4.070312 -1.140625 4.34375 -1.140625 C 4.519531 -1.140625 4.722656 -1.21875 4.953125 -1.375 C 5.179688 -1.539062 5.457031 -1.78125 5.78125 -2.09375 C 5.820312 -2.125 5.859375 -2.140625 5.890625 -2.140625 C 5.941406 -2.140625 5.984375 -2.109375 6.015625 -2.046875 C 6.054688 -1.984375 6.050781 -1.925781 6 -1.875 C 5.382812 -1.144531 4.835938 -0.609375 4.359375 -0.265625 C 3.878906 0.078125 3.382812 0.25 2.875 0.25 Z M 2.875 0.25 "/></g></g></g><g fill="#2563eb" fill-opacity="1"><g transform="translate(380.595747, 566.683347)"><g><path d="M 12.109375 -2.09375 C 12.148438 -2.125 12.175781 -2.140625 12.1875 -2.140625 C 12.25 -2.140625 12.296875 -2.109375 12.328125 -2.046875 C 12.367188 -1.984375 12.367188 -1.925781 12.328125 -1.875 C 11.710938 -1.144531 11.164062 -0.609375 10.6875 -0.265625 C 10.207031 0.078125 9.710938 0.25 9.203125 0.25 C 8.335938 0.25 7.90625 -0.257812 7.90625 -1.28125 C 7.90625 -1.550781 7.945312 -1.929688 8.03125 -2.421875 L 8.828125 -6.734375 C 8.921875 -7.242188 8.96875 -7.648438 8.96875 -7.953125 C 8.96875 -8.835938 8.675781 -9.28125 8.09375 -9.28125 C 7.582031 -9.28125 7.054688 -8.953125 6.515625 -8.296875 C 5.972656 -7.640625 5.460938 -6.675781 4.984375 -5.40625 C 4.503906 -4.132812 4.101562 -2.613281 3.78125 -0.84375 L 3.6875 -0.328125 C 3.601562 0.0351562 3.097656 0.21875 2.171875 0.21875 C 1.578125 0.21875 1.28125 0.144531 1.28125 0 L 1.390625 -0.5625 C 1.566406 -1.414062 1.664062 -1.898438 1.6875 -2.015625 L 2.796875 -8.0625 C 2.828125 -8.226562 2.84375 -8.425781 2.84375 -8.65625 C 2.84375 -9.144531 2.691406 -9.390625 2.390625 -9.390625 C 2.003906 -9.390625 1.476562 -9.03125 0.8125 -8.3125 C 0.789062 -8.289062 0.765625 -8.28125 0.734375 -8.28125 C 0.679688 -8.28125 0.632812 -8.3125 0.59375 -8.375 C 0.5625 -8.4375 0.5625 -8.492188 0.59375 -8.546875 C 1.25 -9.304688 1.832031 -9.859375 2.34375 -10.203125 C 2.863281 -10.554688 3.382812 -10.734375 3.90625 -10.734375 C 4.757812 -10.734375 5.1875 -10.25 5.1875 -9.28125 C 5.1875 -9.007812 5.160156 -8.710938 5.109375 -8.390625 L 4.671875 -5.921875 C 5.304688 -7.492188 6.035156 -8.703125 6.859375 -9.546875 C 7.679688 -10.398438 8.554688 -10.828125 9.484375 -10.828125 C 10.722656 -10.828125 11.34375 -10.078125 11.34375 -8.578125 C 11.34375 -8.234375 11.300781 -7.789062 11.21875 -7.25 L 10.3125 -2.421875 C 10.257812 -2.148438 10.234375 -1.929688 10.234375 -1.765625 C 10.234375 -1.347656 10.378906 -1.140625 10.671875 -1.140625 C 10.847656 -1.140625 11.050781 -1.21875 11.28125 -1.375 C 11.507812 -1.539062 11.785156 -1.78125 12.109375 -2.09375 Z M 12.109375 -2.09375 "/></g></g></g><g fill="#2563eb" fill-opacity="1"><g transform="translate(401.644621, 566.683347)"><g><path d="M 10.703125 -10.75 C 10.785156 -10.75 10.828125 -10.601562 10.828125 -10.3125 C 10.828125 -10.007812 10.785156 -9.691406 10.703125 -9.359375 C 10.628906 -9.035156 10.554688 -8.90625 10.484375 -8.96875 C 9.898438 -9.363281 9.226562 -9.578125 8.46875 -9.609375 C 8.882812 -9.085938 9.09375 -8.4375 9.09375 -7.65625 C 9.09375 -7.289062 9.054688 -6.96875 8.984375 -6.6875 C 8.734375 -5.46875 8.144531 -4.488281 7.21875 -3.75 C 6.300781 -3.019531 5.289062 -2.65625 4.1875 -2.65625 C 3.945312 -2.65625 3.773438 -2.664062 3.671875 -2.6875 C 3.554688 -2.46875 3.5 -2.296875 3.5 -2.171875 C 3.445312 -1.722656 3.601562 -1.347656 3.96875 -1.046875 C 4.34375 -0.742188 4.945312 -0.382812 5.78125 0.03125 C 6.488281 0.375 7.054688 0.675781 7.484375 0.9375 C 7.910156 1.195312 8.273438 1.535156 8.578125 1.953125 C 8.890625 2.367188 9.046875 2.867188 9.046875 3.453125 C 9.046875 4.285156 8.765625 5.015625 8.203125 5.640625 C 7.640625 6.273438 6.894531 6.765625 5.96875 7.109375 C 5.050781 7.453125 4.054688 7.625 2.984375 7.625 C 1.660156 7.625 0.617188 7.363281 -0.140625 6.84375 C -0.898438 6.332031 -1.28125 5.691406 -1.28125 4.921875 C -1.28125 4.191406 -0.960938 3.515625 -0.328125 2.890625 C 0.304688 2.265625 1.210938 1.632812 2.390625 1 C 1.734375 0.570312 1.40625 0.113281 1.40625 -0.375 C 1.40625 -0.757812 1.554688 -1.140625 1.859375 -1.515625 C 2.171875 -1.898438 2.617188 -2.328125 3.203125 -2.796875 C 2.566406 -2.972656 2.078125 -3.328125 1.734375 -3.859375 C 1.390625 -4.398438 1.21875 -5.023438 1.21875 -5.734375 C 1.21875 -5.929688 1.253906 -6.25 1.328125 -6.6875 C 1.546875 -7.820312 2.109375 -8.765625 3.015625 -9.515625 C 3.921875 -10.265625 4.953125 -10.640625 6.109375 -10.640625 C 6.890625 -10.640625 7.523438 -10.453125 8.015625 -10.078125 C 8.972656 -10.523438 9.867188 -10.75 10.703125 -10.75 Z M 6.625 -6.4375 C 6.664062 -6.800781 6.6875 -7.09375 6.6875 -7.3125 C 6.6875 -8.070312 6.582031 -8.722656 6.375 -9.265625 C 6.175781 -9.804688 5.867188 -10.078125 5.453125 -10.078125 C 5.054688 -10.078125 4.6875 -9.769531 4.34375 -9.15625 C 4 -8.539062 3.78125 -7.78125 3.6875 -6.875 C 3.65625 -6.4375 3.640625 -6.128906 3.640625 -5.953125 C 3.640625 -5.148438 3.753906 -4.5 3.984375 -4 C 4.222656 -3.507812 4.523438 -3.265625 4.890625 -3.265625 C 5.285156 -3.265625 5.648438 -3.554688 5.984375 -4.140625 C 6.316406 -4.734375 6.53125 -5.5 6.625 -6.4375 Z M 6.8125 4.71875 C 6.8125 4.050781 6.554688 3.507812 6.046875 3.09375 C 5.546875 2.675781 4.816406 2.234375 3.859375 1.765625 C 3.460938 1.597656 3.097656 1.414062 2.765625 1.21875 C 1.703125 2.070312 1.171875 3.03125 1.171875 4.09375 C 1.171875 4.875 1.476562 5.519531 2.09375 6.03125 C 2.707031 6.539062 3.46875 6.796875 4.375 6.796875 C 5.207031 6.796875 5.820312 6.585938 6.21875 6.171875 C 6.613281 5.765625 6.8125 5.28125 6.8125 4.71875 Z M 6.8125 4.71875 "/></g></g></g><g fill="#2563eb" fill-opacity="1"><g transform="translate(420.331473, 566.683347)"><g/></g></g><g fill="#2563eb" fill-opacity="1"><g transform="translate(434.837296, 566.683347)"><g><path d="M 8.96875 0.328125 C 7.375 0.328125 6.015625 0.03125 4.890625 -0.5625 C 3.765625 -1.164062 2.910156 -1.992188 2.328125 -3.046875 C 1.753906 -4.109375 1.46875 -5.328125 1.46875 -6.703125 C 1.46875 -7.378906 1.53125 -8.03125 1.65625 -8.65625 C 1.96875 -10.320312 2.628906 -11.804688 3.640625 -13.109375 C 4.648438 -14.421875 5.898438 -15.441406 7.390625 -16.171875 C 8.890625 -16.898438 10.472656 -17.265625 12.140625 -17.265625 C 12.921875 -17.265625 13.691406 -17.1875 14.453125 -17.03125 C 15.222656 -16.882812 15.828125 -16.703125 16.265625 -16.484375 C 16.367188 -16.410156 16.4375 -16.335938 16.46875 -16.265625 C 16.5 -16.191406 16.503906 -16.054688 16.484375 -15.859375 L 16.046875 -12.21875 C 16.023438 -12.164062 15.972656 -12.140625 15.890625 -12.140625 C 15.816406 -12.140625 15.769531 -12.164062 15.75 -12.21875 C 15.425781 -13.59375 14.859375 -14.664062 14.046875 -15.4375 C 13.242188 -16.207031 12.226562 -16.59375 11 -16.59375 C 9.363281 -16.59375 7.988281 -15.972656 6.875 -14.734375 C 5.769531 -13.492188 5.050781 -11.804688 4.71875 -9.671875 C 4.59375 -8.890625 4.53125 -8.082031 4.53125 -7.25 C 4.53125 -5.070312 5 -3.359375 5.9375 -2.109375 C 6.882812 -0.867188 8.191406 -0.25 9.859375 -0.25 C 10.742188 -0.25 11.382812 -0.472656 11.78125 -0.921875 C 12.1875 -1.378906 12.457031 -2.210938 12.59375 -3.421875 C 12.6875 -4.085938 12.734375 -4.566406 12.734375 -4.859375 C 12.734375 -5.296875 12.65625 -5.613281 12.5 -5.8125 C 12.351562 -6.007812 12.109375 -6.144531 11.765625 -6.21875 C 11.429688 -6.289062 10.921875 -6.328125 10.234375 -6.328125 C 10.203125 -6.328125 10.171875 -6.347656 10.140625 -6.390625 C 10.117188 -6.441406 10.109375 -6.492188 10.109375 -6.546875 C 10.109375 -6.597656 10.117188 -6.644531 10.140625 -6.6875 C 10.171875 -6.738281 10.203125 -6.765625 10.234375 -6.765625 C 11.597656 -6.671875 12.710938 -6.625 13.578125 -6.625 C 14.429688 -6.625 15.316406 -6.648438 16.234375 -6.703125 C 16.296875 -6.703125 16.328125 -6.640625 16.328125 -6.515625 C 16.335938 -6.390625 16.304688 -6.328125 16.234375 -6.328125 C 16.003906 -6.347656 15.832031 -6.289062 15.71875 -6.15625 C 15.613281 -6.019531 15.515625 -5.6875 15.421875 -5.15625 C 15.328125 -4.632812 15.226562 -3.96875 15.125 -3.15625 C 15.019531 -2.445312 14.957031 -1.898438 14.9375 -1.515625 C 14.914062 -1.140625 14.890625 -0.890625 14.859375 -0.765625 C 14.835938 -0.648438 14.804688 -0.570312 14.765625 -0.53125 C 14.734375 -0.5 14.664062 -0.46875 14.5625 -0.4375 C 12.40625 0.0703125 10.539062 0.328125 8.96875 0.328125 Z M 8.96875 0.328125 "/></g></g></g><g fill="#2563eb" fill-opacity="1"><g transform="translate(460.175792, 566.683347)"><g><path d="M 8.0625 -10.734375 C 8.53125 -10.734375 8.976562 -10.554688 9.40625 -10.203125 C 9.832031 -9.859375 10.007812 -9.472656 9.9375 -9.046875 C 9.90625 -8.773438 9.78125 -8.519531 9.5625 -8.28125 C 9.34375 -8.039062 9.070312 -7.921875 8.75 -7.921875 C 8.414062 -7.921875 8.0625 -8.078125 7.6875 -8.390625 C 7.5625 -8.484375 7.429688 -8.566406 7.296875 -8.640625 C 7.171875 -8.710938 7.046875 -8.75 6.921875 -8.75 C 6.617188 -8.75 6.238281 -8.265625 5.78125 -7.296875 C 5.332031 -6.335938 4.90625 -5.191406 4.5 -3.859375 C 4.09375 -2.535156 3.796875 -1.367188 3.609375 -0.359375 L 3.609375 -0.328125 C 3.578125 -0.160156 3.429688 -0.03125 3.171875 0.0625 C 2.921875 0.164062 2.5625 0.21875 2.09375 0.21875 C 1.488281 0.21875 1.1875 0.144531 1.1875 0 C 1.207031 -0.125 1.265625 -0.394531 1.359375 -0.8125 C 1.460938 -1.226562 1.550781 -1.628906 1.625 -2.015625 L 2.75 -8.0625 C 2.78125 -8.351562 2.796875 -8.546875 2.796875 -8.640625 C 2.796875 -9.140625 2.632812 -9.390625 2.3125 -9.390625 C 1.945312 -9.390625 1.429688 -9.03125 0.765625 -8.3125 C 0.742188 -8.289062 0.710938 -8.28125 0.671875 -8.28125 C 0.597656 -8.28125 0.546875 -8.3125 0.515625 -8.375 C 0.484375 -8.4375 0.492188 -8.492188 0.546875 -8.546875 C 1.191406 -9.304688 1.769531 -9.859375 2.28125 -10.203125 C 2.800781 -10.554688 3.328125 -10.734375 3.859375 -10.734375 C 4.304688 -10.734375 4.628906 -10.609375 4.828125 -10.359375 C 5.023438 -10.117188 5.125 -9.757812 5.125 -9.28125 C 5.125 -9.007812 5.097656 -8.710938 5.046875 -8.390625 L 4.515625 -5.40625 C 5.578125 -8.957031 6.757812 -10.734375 8.0625 -10.734375 Z M 8.0625 -10.734375 "/></g></g></g><g fill="#2563eb" fill-opacity="1"><g transform="translate(477.993857, 566.683347)"><g><path d="M 4.296875 0.375 C 3.097656 0.375 2.1875 -0.00390625 1.5625 -0.765625 C 0.9375 -1.535156 0.625 -2.539062 0.625 -3.78125 C 0.625 -4.320312 0.671875 -4.804688 0.765625 -5.234375 C 0.960938 -6.328125 1.351562 -7.296875 1.9375 -8.140625 C 2.53125 -8.992188 3.242188 -9.65625 4.078125 -10.125 C 4.910156 -10.59375 5.804688 -10.828125 6.765625 -10.828125 C 7.972656 -10.828125 8.898438 -10.460938 9.546875 -9.734375 C 10.191406 -9.003906 10.515625 -8.023438 10.515625 -6.796875 C 10.515625 -6.304688 10.457031 -5.785156 10.34375 -5.234375 C 10.113281 -4.046875 9.6875 -3.03125 9.0625 -2.1875 C 8.4375 -1.34375 7.703125 -0.703125 6.859375 -0.265625 C 6.015625 0.160156 5.160156 0.375 4.296875 0.375 Z M 5.21875 -0.296875 C 5.789062 -0.296875 6.289062 -0.628906 6.71875 -1.296875 C 7.144531 -1.972656 7.457031 -2.890625 7.65625 -4.046875 C 7.78125 -4.753906 7.84375 -5.46875 7.84375 -6.1875 C 7.84375 -7.363281 7.664062 -8.320312 7.3125 -9.0625 C 6.96875 -9.8125 6.484375 -10.1875 5.859375 -10.1875 C 5.316406 -10.1875 4.832031 -9.867188 4.40625 -9.234375 C 3.988281 -8.597656 3.671875 -7.65625 3.453125 -6.40625 C 3.328125 -5.695312 3.265625 -4.984375 3.265625 -4.265625 C 3.265625 -3.085938 3.4375 -2.128906 3.78125 -1.390625 C 4.125 -0.660156 4.601562 -0.296875 5.21875 -0.296875 Z M 5.21875 -0.296875 "/></g></g></g><g fill="#2563eb" fill-opacity="1"><g transform="translate(497.223701, 566.683347)"><g><path d="M 14.671875 -10.75 C 15.148438 -10.75 15.507812 -10.585938 15.75 -10.265625 C 16 -9.941406 16.125 -9.363281 16.125 -8.53125 C 16.125 -8.039062 16.109375 -7.640625 16.078125 -7.328125 C 15.953125 -5.992188 15.601562 -4.734375 15.03125 -3.546875 C 14.457031 -2.359375 13.757812 -1.410156 12.9375 -0.703125 C 12.113281 0.00390625 11.296875 0.359375 10.484375 0.359375 C 9.472656 0.359375 8.710938 -0.191406 8.203125 -1.296875 C 7.191406 -0.191406 6.164062 0.359375 5.125 0.359375 C 4.3125 0.359375 3.679688 0.101562 3.234375 -0.40625 C 2.796875 -0.925781 2.578125 -1.640625 2.578125 -2.546875 C 2.578125 -2.859375 2.601562 -3.1875 2.65625 -3.53125 C 2.851562 -4.757812 3.40625 -6.132812 4.3125 -7.65625 C 4.476562 -7.90625 4.5625 -8.097656 4.5625 -8.234375 C 4.5625 -8.359375 4.453125 -8.421875 4.234375 -8.421875 L 2.9375 -8.421875 C 2.300781 -8.421875 1.835938 -8.328125 1.546875 -8.140625 C 1.253906 -7.960938 1.035156 -7.664062 0.890625 -7.25 C 0.859375 -7.175781 0.804688 -7.140625 0.734375 -7.140625 C 0.679688 -7.140625 0.632812 -7.15625 0.59375 -7.1875 C 0.5625 -7.226562 0.550781 -7.273438 0.5625 -7.328125 C 0.851562 -8.179688 1.113281 -8.820312 1.34375 -9.25 C 1.570312 -9.6875 1.84375 -10.003906 2.15625 -10.203125 C 2.476562 -10.410156 2.898438 -10.515625 3.421875 -10.515625 L 5.953125 -10.515625 C 6.148438 -10.515625 6.25 -10.476562 6.25 -10.40625 C 6.25 -10.34375 6.222656 -10.269531 6.171875 -10.1875 C 5.785156 -9.300781 5.429688 -8.390625 5.109375 -7.453125 C 4.796875 -6.523438 4.597656 -5.75 4.515625 -5.125 C 4.472656 -4.925781 4.453125 -4.65625 4.453125 -4.3125 C 4.453125 -3.519531 4.632812 -2.890625 5 -2.421875 C 5.375 -1.960938 5.867188 -1.734375 6.484375 -1.734375 C 6.941406 -1.734375 7.40625 -1.925781 7.875 -2.3125 C 7.75 -2.875 7.6875 -3.550781 7.6875 -4.34375 C 7.6875 -5.25 7.757812 -6.109375 7.90625 -6.921875 C 8.132812 -8.210938 8.4375 -9.15625 8.8125 -9.75 C 9.195312 -10.34375 9.671875 -10.640625 10.234375 -10.640625 C 10.972656 -10.640625 11.34375 -10.113281 11.34375 -9.0625 C 11.34375 -8.757812 11.316406 -8.398438 11.265625 -7.984375 C 11.140625 -7.117188 10.921875 -6.25 10.609375 -5.375 C 10.304688 -4.507812 9.929688 -3.703125 9.484375 -2.953125 C 10.078125 -2.140625 10.851562 -1.734375 11.8125 -1.734375 C 12.519531 -1.734375 13.15625 -2.070312 13.71875 -2.75 C 14.289062 -3.4375 14.640625 -4.320312 14.765625 -5.40625 C 14.785156 -5.53125 14.796875 -5.710938 14.796875 -5.953125 C 14.796875 -6.378906 14.722656 -6.742188 14.578125 -7.046875 C 14.429688 -7.347656 14.195312 -7.675781 13.875 -8.03125 C 13.644531 -8.289062 13.46875 -8.523438 13.34375 -8.734375 C 13.226562 -8.941406 13.171875 -9.171875 13.171875 -9.421875 C 13.171875 -9.859375 13.3125 -10.1875 13.59375 -10.40625 C 13.875 -10.632812 14.234375 -10.75 14.671875 -10.75 Z M 8.546875 -7.109375 C 8.492188 -6.828125 8.46875 -6.515625 8.46875 -6.171875 C 8.46875 -5.296875 8.660156 -4.460938 9.046875 -3.671875 C 9.421875 -4.242188 9.726562 -4.851562 9.96875 -5.5 C 10.21875 -6.15625 10.34375 -6.738281 10.34375 -7.25 C 10.34375 -7.90625 10.082031 -8.234375 9.5625 -8.234375 C 9.320312 -8.234375 9.113281 -8.148438 8.9375 -7.984375 C 8.769531 -7.816406 8.640625 -7.523438 8.546875 -7.109375 Z M 8.546875 -7.109375 "/></g></g></g><g fill="#2563eb" fill-opacity="1"><g transform="translate(522.426441, 566.683347)"><g><path d="M 8.25 -10.484375 C 8.382812 -10.484375 8.453125 -10.398438 8.453125 -10.234375 C 8.453125 -10.085938 8.347656 -9.867188 8.140625 -9.578125 C 7.929688 -9.296875 7.734375 -9.15625 7.546875 -9.15625 C 7.492188 -9.15625 7.195312 -9.195312 6.65625 -9.28125 C 6.125 -9.375 5.523438 -9.441406 4.859375 -9.484375 L 3.71875 -3.015625 C 3.6875 -2.722656 3.671875 -2.523438 3.671875 -2.421875 C 3.671875 -1.984375 3.78125 -1.664062 4 -1.46875 C 4.226562 -1.269531 4.578125 -1.171875 5.046875 -1.171875 C 5.734375 -1.171875 6.492188 -1.503906 7.328125 -2.171875 L 7.359375 -2.171875 C 7.429688 -2.171875 7.492188 -2.144531 7.546875 -2.09375 C 7.597656 -2.039062 7.597656 -1.984375 7.546875 -1.921875 C 6.710938 -1.128906 5.972656 -0.554688 5.328125 -0.203125 C 4.691406 0.148438 4.054688 0.328125 3.421875 0.328125 C 1.953125 0.328125 1.21875 -0.332031 1.21875 -1.65625 C 1.21875 -1.925781 1.242188 -2.222656 1.296875 -2.546875 L 2.359375 -8.3125 C 2.410156 -8.613281 2.4375 -8.863281 2.4375 -9.0625 C 2.4375 -9.34375 2.363281 -9.523438 2.21875 -9.609375 C 2.082031 -9.703125 1.820312 -9.75 1.4375 -9.75 C 1.382812 -9.75 1.359375 -9.8125 1.359375 -9.9375 C 1.359375 -10.101562 1.382812 -10.1875 1.4375 -10.1875 C 2.882812 -10.1875 4.035156 -10.984375 4.890625 -12.578125 C 4.921875 -12.628906 4.984375 -12.65625 5.078125 -12.65625 C 5.171875 -12.65625 5.253906 -12.632812 5.328125 -12.59375 C 5.398438 -12.5625 5.425781 -12.523438 5.40625 -12.484375 L 5 -10.265625 C 5.5 -10.285156 5.929688 -10.304688 6.296875 -10.328125 C 6.660156 -10.359375 6.96875 -10.382812 7.21875 -10.40625 C 7.6875 -10.457031 8.03125 -10.484375 8.25 -10.484375 Z M 8.25 -10.484375 "/></g></g></g><g fill="#2563eb" fill-opacity="1"><g transform="translate(538.751295, 566.683347)"><g><path d="M 11.5625 -2.09375 C 11.601562 -2.125 11.632812 -2.140625 11.65625 -2.140625 C 11.707031 -2.140625 11.753906 -2.109375 11.796875 -2.046875 C 11.847656 -1.984375 11.84375 -1.925781 11.78125 -1.875 C 11.164062 -1.144531 10.617188 -0.609375 10.140625 -0.265625 C 9.660156 0.078125 9.164062 0.25 8.65625 0.25 C 7.789062 0.25 7.359375 -0.257812 7.359375 -1.28125 C 7.359375 -1.550781 7.40625 -1.929688 7.5 -2.421875 L 8.28125 -6.734375 C 8.375 -7.242188 8.421875 -7.648438 8.421875 -7.953125 C 8.421875 -8.835938 8.128906 -9.28125 7.546875 -9.28125 C 7.046875 -9.28125 6.523438 -8.957031 5.984375 -8.3125 C 5.453125 -7.675781 4.945312 -6.734375 4.46875 -5.484375 C 3.988281 -4.234375 3.585938 -2.738281 3.265625 -1 L 3.15625 -0.328125 C 3.0625 0.0351562 2.550781 0.21875 1.625 0.21875 C 1.03125 0.21875 0.734375 0.144531 0.734375 0 L 0.84375 -0.5625 C 1.019531 -1.414062 1.117188 -1.898438 1.140625 -2.015625 L 3.6875 -16 C 3.75 -16.351562 3.78125 -16.648438 3.78125 -16.890625 C 3.78125 -17.410156 3.609375 -17.671875 3.265625 -17.671875 C 3.046875 -17.671875 2.664062 -17.546875 2.125 -17.296875 L 2.09375 -17.296875 C 2.019531 -17.296875 1.96875 -17.34375 1.9375 -17.4375 C 1.914062 -17.539062 1.941406 -17.601562 2.015625 -17.625 L 6.21875 -19.6875 L 6.265625 -19.6875 C 6.335938 -19.6875 6.40625 -19.660156 6.46875 -19.609375 C 6.539062 -19.554688 6.566406 -19.507812 6.546875 -19.46875 L 4.15625 -5.96875 C 4.769531 -7.507812 5.488281 -8.703125 6.3125 -9.546875 C 7.132812 -10.398438 8.007812 -10.828125 8.9375 -10.828125 C 10.1875 -10.828125 10.8125 -10.078125 10.8125 -8.578125 C 10.8125 -8.234375 10.765625 -7.789062 10.671875 -7.25 L 9.78125 -2.421875 C 9.71875 -2.148438 9.6875 -1.929688 9.6875 -1.765625 C 9.6875 -1.347656 9.832031 -1.140625 10.125 -1.140625 C 10.3125 -1.140625 10.515625 -1.21875 10.734375 -1.375 C 10.960938 -1.539062 11.238281 -1.78125 11.5625 -2.09375 Z M 11.5625 -2.09375 "/></g></g></g></svg>