<svg xmlns="http://www.w3.org/2000/svg" xmlns:xlink="http://www.w3.org/1999/xlink" width="1080" zoomAndPan="magnify" viewBox="0 0 810 809.999993" height="1080" preserveAspectRatio="xMidYMid meet" version="1.0"><defs><g/><clipPath id="3cf8e7a901"><path d="M 589.078125 495.199219 L 630.207031 495.199219 L 630.207031 536.328125 L 589.078125 536.328125 Z M 589.078125 495.199219 " clip-rule="nonzero"/></clipPath><clipPath id="10ba1dba16"><path d="M 609.640625 495.199219 C 598.285156 495.199219 589.078125 504.40625 589.078125 515.761719 C 589.078125 527.121094 598.285156 536.328125 609.640625 536.328125 C 621 536.328125 630.207031 527.121094 630.207031 515.761719 C 630.207031 504.40625 621 495.199219 609.640625 495.199219 Z M 609.640625 495.199219 " clip-rule="nonzero"/></clipPath><clipPath id="3c61649293"><path d="M 294.683594 387.433594 L 321.484375 387.433594 L 321.484375 414.234375 L 294.683594 414.234375 Z M 294.683594 387.433594 " clip-rule="nonzero"/></clipPath><clipPath id="5015a2c88f"><path d="M 308.082031 387.433594 C 300.683594 387.433594 294.683594 393.429688 294.683594 400.832031 C 294.683594 408.234375 300.683594 414.234375 308.082031 414.234375 C 315.484375 414.234375 321.484375 408.234375 321.484375 400.832031 C 321.484375 393.429688 315.484375 387.433594 308.082031 387.433594 Z M 308.082031 387.433594 " clip-rule="nonzero"/></clipPath></defs><g fill="#000000" fill-opacity="1"><g transform="translate(279.341591, 480.632943)"><g><path d="M 43.890625 -270.6875 C 59.867188 -277.320312 75.234375 -280.640625 89.984375 -280.640625 C 102.273438 -280.640625 114.9375 -276.09375 127.96875 -267 C 135.101562 -262.082031 143.09375 -252.492188 151.9375 -238.234375 C 157.84375 -228.398438 165.34375 -210.578125 174.4375 -184.765625 L 219.4375 -57.15625 C 229.757812 -28.632812 240.265625 -5.957031 250.953125 10.875 C 261.648438 27.71875 271.425781 40.378906 280.28125 48.859375 C 289.132812 57.347656 298.351562 63.3125 307.9375 66.75 C 317.53125 70.1875 325.457031 71.90625 331.71875 71.90625 C 337.988281 71.90625 343.582031 71.414062 348.5 70.4375 L 348.875 74.125 C 337.070312 78.0625 325.515625 80.03125 314.203125 80.03125 C 302.898438 80.03125 291.59375 77.140625 280.28125 71.359375 C 268.96875 65.578125 258.394531 57.523438 248.5625 47.203125 C 227.414062 25.816406 209.46875 -6.753906 194.71875 -50.515625 L 180.34375 -92.5625 L 79.296875 -92.5625 L 53.84375 -26.921875 C 52.613281 -23.972656 52 -21.019531 52 -18.0625 C 52 -15.113281 53.289062 -11.976562 55.875 -8.65625 C 58.457031 -5.34375 62.453125 -3.6875 67.859375 -3.6875 L 70.8125 -3.6875 L 70.8125 0 L -3.3125 0 L -3.3125 -3.6875 L 0 -3.6875 C 5.90625 -3.6875 11.6875 -5.46875 17.34375 -9.03125 C 23 -12.59375 27.671875 -17.941406 31.359375 -25.078125 L 122.8125 -244.140625 C 109.53125 -263.066406 93.054688 -272.53125 73.390625 -272.53125 C 64.546875 -272.53125 55.082031 -270.6875 45 -267 Z M 83.34375 -103.625 L 176.65625 -103.625 L 147.515625 -189.546875 C 141.859375 -206.023438 136.695312 -218.9375 132.03125 -228.28125 Z M 83.34375 -103.625 "/></g></g></g><g clip-path="url(#3cf8e7a901)"><g clip-path="url(#10ba1dba16)"><path fill="#2563eb" d="M 589.078125 495.199219 L 630.207031 495.199219 L 630.207031 536.328125 L 589.078125 536.328125 Z M 589.078125 495.199219 " fill-opacity="1" fill-rule="nonzero"/></g></g><g clip-path="url(#3c61649293)"><g clip-path="url(#5015a2c88f)"><path fill="#000000" d="M 294.683594 387.433594 L 321.484375 387.433594 L 321.484375 414.234375 L 294.683594 414.234375 Z M 294.683594 387.433594 " fill-opacity="1" fill-rule="nonzero"/></g></g><g fill="#2563eb" fill-opacity="1"><g transform="translate(284.033867, 508.545816)"><g><path d="M 109.59375 -3.40625 L 114.015625 -3.40625 L 114.015625 0 L 39.484375 0 L 39.484375 -3.40625 L 43.90625 -3.40625 C 49.800781 -3.40625 54.90625 -5.503906 59.21875 -9.703125 C 63.53125 -13.898438 65.6875 -18.945312 65.6875 -24.84375 L 65.6875 -229.046875 L 29.265625 -227.015625 C 6.347656 -225.648438 -5.109375 -217.367188 -5.109375 -202.171875 C -5.109375 -196.035156 -3.125 -190.8125 0.84375 -186.5 C 4.820312 -182.195312 11.125 -179.816406 19.75 -179.359375 L 19.75 -177.3125 C 16.570312 -176.632812 13.394531 -176.296875 10.21875 -176.296875 C 0.226562 -176.296875 -7.257812 -180.265625 -12.25 -188.203125 C -15.195312 -192.742188 -16.671875 -197.738281 -16.671875 -203.1875 C -16.671875 -222.46875 -2.035156 -233.695312 27.234375 -236.875 C 27.460938 -236.875 38.75 -237.609375 61.09375 -239.078125 C 83.445312 -240.554688 101.085938 -242.546875 114.015625 -245.046875 L 114.703125 -241.640625 C 104.941406 -240.054688 98.019531 -236.765625 93.9375 -231.765625 C 89.851562 -226.773438 87.8125 -219.859375 87.8125 -211.015625 L 87.8125 -24.84375 C 88.039062 -18.945312 90.253906 -13.898438 94.453125 -9.703125 C 98.648438 -5.503906 103.695312 -3.40625 109.59375 -3.40625 Z M 109.59375 -3.40625 "/></g></g></g><g fill="#3d3b3a" fill-opacity="1"><g transform="translate(100.899029, 604.723358)"><g><path d="M 16.4375 -4.78125 L 5.765625 -4.78125 L 3.75 0 L 0.03125 0 L 9.375 -21.15625 L 13.03125 -21.15625 L 22.265625 0 L 18.46875 0 Z M 15.078125 -7.953125 L 11.09375 -17.34375 L 7.09375 -7.953125 Z M 15.078125 -7.953125 "/></g></g></g><g fill="#3d3b3a" fill-opacity="1"><g transform="translate(135.295789, 604.723358)"><g><path d="M 17.25 -10.390625 L 20.375 -10.390625 L 20.375 -2.59375 C 19.28125 -1.769531 17.992188 -1.101562 16.515625 -0.59375 C 15.035156 -0.09375 13.578125 0.15625 12.140625 0.15625 C 9.023438 0.15625 6.394531 -0.875 4.25 -2.9375 C 2.101562 -5.007812 1.03125 -7.554688 1.03125 -10.578125 C 1.03125 -13.597656 2.117188 -16.128906 4.296875 -18.171875 C 6.472656 -20.222656 9.160156 -21.25 12.359375 -21.25 C 13.847656 -21.25 15.3125 -20.976562 16.75 -20.4375 C 18.195312 -19.90625 19.441406 -19.1875 20.484375 -18.28125 L 18.46875 -15.65625 C 16.726562 -17.269531 14.691406 -18.078125 12.359375 -18.078125 C 10.203125 -18.078125 8.378906 -17.347656 6.890625 -15.890625 C 5.398438 -14.441406 4.65625 -12.671875 4.65625 -10.578125 C 4.65625 -8.460938 5.40625 -6.675781 6.90625 -5.21875 C 8.40625 -3.769531 10.234375 -3.046875 12.390625 -3.046875 C 14.023438 -3.046875 15.644531 -3.53125 17.25 -4.5 Z M 17.25 -10.390625 "/></g></g></g><g fill="#3d3b3a" fill-opacity="1"><g transform="translate(170.025001, 604.723358)"><g><path d="M 24.53125 0 L 20.875 0 L 15.859375 -16.5 L 10.78125 0 L 7.09375 0 L 0.09375 -21.15625 L 3.921875 -21.15625 L 9.0625 -3.953125 L 14.171875 -21.125 L 17.671875 -21.15625 L 22.8125 -3.953125 L 27.921875 -21.15625 L 31.609375 -21.15625 Z M 24.53125 0 "/></g></g></g><g fill="#3d3b3a" fill-opacity="1"><g transform="translate(213.428102, 604.723358)"><g><path d="M 16.4375 -4.78125 L 5.765625 -4.78125 L 3.75 0 L 0.03125 0 L 9.375 -21.15625 L 13.03125 -21.15625 L 22.265625 0 L 18.46875 0 Z M 15.078125 -7.953125 L 11.09375 -17.34375 L 7.09375 -7.953125 Z M 15.078125 -7.953125 "/></g></g></g><g fill="#3d3b3a" fill-opacity="1"><g transform="translate(247.824863, 604.723358)"><g><path d="M 11.453125 -7.046875 L 11.453125 0 L 7.921875 0 L 7.921875 -6.921875 L 0.03125 -21.15625 L 3.625 -21.15625 L 9.671875 -10.84375 L 15.59375 -21.15625 L 19.21875 -21.15625 Z M 11.453125 -7.046875 "/></g></g></g><g fill="#3d3b3a" fill-opacity="1"><g transform="translate(279.169142, 604.723358)"><g/></g></g><g fill="#3d3b3a" fill-opacity="1"><g transform="translate(299.059052, 604.723358)"><g><path d="M 6.34375 0 L 2.78125 0 L 2.78125 -21.15625 L 6.34375 -21.15625 Z M 6.34375 0 "/></g></g></g><g fill="#3d3b3a" fill-opacity="1"><g transform="translate(320.278755, 604.723358)"><g><path d="M 21.125 0 L 17.625 0 L 6.34375 -15.171875 L 6.34375 0 L 2.78125 0 L 2.78125 -21.15625 L 6.28125 -21.15625 L 17.625 -5.953125 L 17.625 -21.15625 L 21.125 -21.15625 Z M 21.125 0 "/></g></g></g><g fill="#3d3b3a" fill-opacity="1"><g transform="translate(356.307523, 604.723358)"><g><path d="M 12.203125 0 L 8.515625 0 L 0.09375 -21.15625 L 3.921875 -21.15625 L 10.453125 -3.953125 L 17.046875 -21.15625 L 20.765625 -21.15625 Z M 12.203125 0 "/></g></g></g><g fill="#3d3b3a" fill-opacity="1"><g transform="translate(389.253598, 604.723358)"><g><path d="M 17.890625 -17.953125 L 6.34375 -17.953125 L 6.34375 -12.234375 L 16.6875 -12.234375 L 16.6875 -9.03125 L 6.34375 -9.03125 L 6.34375 -3.203125 L 18.25 -3.203125 L 18.25 0 L 2.78125 0 L 2.78125 -21.15625 L 17.890625 -21.15625 Z M 17.890625 -17.953125 "/></g></g></g><g fill="#3d3b3a" fill-opacity="1"><g transform="translate(421.172106, 604.723358)"><g><path d="M 9.734375 -21.296875 C 12.472656 -21.296875 14.941406 -20.570312 17.140625 -19.125 L 15.65625 -15.984375 C 13.5 -17.296875 11.429688 -17.953125 9.453125 -17.953125 C 8.390625 -17.953125 7.550781 -17.757812 6.9375 -17.375 C 6.320312 -16.988281 6.015625 -16.441406 6.015625 -15.734375 C 6.015625 -15.035156 6.296875 -14.4375 6.859375 -13.9375 C 7.421875 -13.445312 8.125 -13.085938 8.96875 -12.859375 C 9.820312 -12.628906 10.738281 -12.335938 11.71875 -11.984375 C 12.707031 -11.628906 13.625 -11.253906 14.46875 -10.859375 C 15.320312 -10.472656 16.023438 -9.859375 16.578125 -9.015625 C 17.128906 -8.179688 17.40625 -7.171875 17.40625 -5.984375 C 17.40625 -4.128906 16.664062 -2.644531 15.1875 -1.53125 C 13.707031 -0.425781 11.785156 0.125 9.421875 0.125 C 7.816406 0.125 6.257812 -0.175781 4.75 -0.78125 C 3.238281 -1.382812 1.914062 -2.203125 0.78125 -3.234375 L 2.328125 -6.3125 C 3.390625 -5.320312 4.5625 -4.5625 5.84375 -4.03125 C 7.125 -3.5 8.335938 -3.234375 9.484375 -3.234375 C 10.734375 -3.234375 11.707031 -3.457031 12.40625 -3.90625 C 13.101562 -4.363281 13.453125 -4.992188 13.453125 -5.796875 C 13.453125 -6.523438 13.164062 -7.132812 12.59375 -7.625 C 12.03125 -8.125 11.328125 -8.488281 10.484375 -8.71875 C 9.640625 -8.945312 8.722656 -9.226562 7.734375 -9.5625 C 6.742188 -9.894531 5.828125 -10.25 4.984375 -10.625 C 4.140625 -11 3.4375 -11.597656 2.875 -12.421875 C 2.3125 -13.242188 2.03125 -14.238281 2.03125 -15.40625 C 2.03125 -17.195312 2.734375 -18.625 4.140625 -19.6875 C 5.546875 -20.757812 7.410156 -21.296875 9.734375 -21.296875 Z M 9.734375 -21.296875 "/></g></g></g><g fill="#3d3b3a" fill-opacity="1"><g transform="translate(452.06305, 604.723358)"><g><path d="M 17.21875 -17.953125 L 10.515625 -17.953125 L 10.515625 0 L 6.953125 0 L 6.953125 -17.953125 L 0.265625 -17.953125 L 0.265625 -21.15625 L 17.21875 -21.15625 Z M 17.21875 -17.953125 "/></g></g></g><g fill="#3d3b3a" fill-opacity="1"><g transform="translate(481.654426, 604.723358)"><g><path d="M 25.140625 0 L 21.84375 0 L 21.8125 -15.796875 L 15.140625 -2.203125 L 12.8125 -2.203125 L 6.140625 -15.796875 L 6.140625 0 L 2.78125 0 L 2.78125 -21.15625 L 7.015625 -21.15625 L 13.984375 -7.09375 L 20.9375 -21.15625 L 25.140625 -21.15625 Z M 25.140625 0 "/></g></g></g><g fill="#3d3b3a" fill-opacity="1"><g transform="translate(521.70284, 604.723358)"><g><path d="M 17.890625 -17.953125 L 6.34375 -17.953125 L 6.34375 -12.234375 L 16.6875 -12.234375 L 16.6875 -9.03125 L 6.34375 -9.03125 L 6.34375 -3.203125 L 18.25 -3.203125 L 18.25 0 L 2.78125 0 L 2.78125 -21.15625 L 17.890625 -21.15625 Z M 17.890625 -17.953125 "/></g></g></g><g fill="#3d3b3a" fill-opacity="1"><g transform="translate(553.621326, 604.723358)"><g><path d="M 21.125 0 L 17.625 0 L 6.34375 -15.171875 L 6.34375 0 L 2.78125 0 L 2.78125 -21.15625 L 6.28125 -21.15625 L 17.625 -5.953125 L 17.625 -21.15625 L 21.125 -21.15625 Z M 21.125 0 "/></g></g></g><g fill="#3d3b3a" fill-opacity="1"><g transform="translate(589.650117, 604.723358)"><g><path d="M 17.21875 -17.953125 L 10.515625 -17.953125 L 10.515625 0 L 6.953125 0 L 6.953125 -17.953125 L 0.265625 -17.953125 L 0.265625 -21.15625 L 17.21875 -21.15625 Z M 17.21875 -17.953125 "/></g></g></g><g fill="#3d3b3a" fill-opacity="1"><g transform="translate(619.24147, 604.723358)"><g/></g></g><g fill="#3d3b3a" fill-opacity="1"><g transform="translate(639.131392, 604.723358)"><g><path d="M 6.34375 -3.234375 L 15.5 -3.234375 L 15.5 0 L 2.78125 0 L 2.78125 -21.15625 L 6.34375 -21.15625 Z M 6.34375 -3.234375 "/></g></g></g><g fill="#3d3b3a" fill-opacity="1"><g transform="translate(667.362775, 604.723358)"><g><path d="M 17.21875 -17.953125 L 10.515625 -17.953125 L 10.515625 0 L 6.953125 0 L 6.953125 -17.953125 L 0.265625 -17.953125 L 0.265625 -21.15625 L 17.21875 -21.15625 Z M 17.21875 -17.953125 "/></g></g></g><g fill="#3d3b3a" fill-opacity="1"><g transform="translate(696.954173, 604.723358)"><g><path d="M 2.78125 -21.15625 L 11.453125 -21.15625 C 14.617188 -21.15625 17.234375 -20.15625 19.296875 -18.15625 C 21.359375 -16.164062 22.390625 -13.640625 22.390625 -10.578125 C 22.390625 -7.515625 21.351562 -4.984375 19.28125 -2.984375 C 17.207031 -0.992188 14.566406 0 11.359375 0 L 2.78125 0 Z M 6.34375 -17.953125 L 6.34375 -3.203125 L 11.546875 -3.203125 C 13.617188 -3.203125 15.34375 -3.890625 16.71875 -5.265625 C 18.101562 -6.648438 18.796875 -8.410156 18.796875 -10.546875 C 18.796875 -12.679688 18.082031 -14.445312 16.65625 -15.84375 C 15.238281 -17.25 13.484375 -17.953125 11.390625 -17.953125 Z M 6.34375 -17.953125 "/></g></g></g></svg>